<svg xmlns="http://www.w3.org/2000/svg" xmlns:xlink="http://www.w3.org/1999/xlink" width="162" height="32" viewBox="0 0 162 32"><defs><clipPath id="a"><path d="M0,0,26.5.044l.018,10.662-26.5-.044Z" transform="translate(0 0)" fill="#666656" stroke="#707070" stroke-width="1"/></clipPath><clipPath id="b"><path d="M0,0,26.5.044l.018,10.662-26.5-.044Z" fill="#666656" stroke="#707070" stroke-width="1"/></clipPath></defs><g transform="translate(-249.28 -49.559)"><path d="M.48-4.153a7.949,7.949,0,0,1,.922-3.8,6.971,6.971,0,0,1,2.581-2.733,7.158,7.158,0,0,1,3.783-1,5.8,5.8,0,0,1,1.43.166,12.063,12.063,0,0,1,1.354.435q.14.051.235.083t.159.058a.492.492,0,0,0,.178.026.747.747,0,0,0,.432-.141h.076V-9.5h-.076a3.449,3.449,0,0,0-.757-.883,4.2,4.2,0,0,0-1.284-.73A5.008,5.008,0,0,0,7.74-11.41a5.233,5.233,0,0,0-2.842.877A6.563,6.563,0,0,0,2.642-8.012,7.97,7.97,0,0,0,1.764-4.2a7.826,7.826,0,0,0,.992,3.91A7.428,7.428,0,0,0,5.407,2.471a6.766,6.766,0,0,0,3.567,1,7.642,7.642,0,0,0,2.009-.237A6.115,6.115,0,0,0,12.375,2.7a9.66,9.66,0,0,0,1.036-.685l.064.051A6.848,6.848,0,0,1,8.529,3.86,8.177,8.177,0,0,1,4.066,2.708a7.2,7.2,0,0,1-2.7-2.982A8.808,8.808,0,0,1,.48-4.153ZM10.665-8.287a4.75,4.75,0,0,1,2.486.621A3.991,3.991,0,0,1,14.708-6a5.124,5.124,0,0,1,.521,2.323,4.968,4.968,0,0,1-.534,2.3A4.077,4.077,0,0,1,13.125.282,4.7,4.7,0,0,1,10.665.9,4.789,4.789,0,0,1,8.179.289,3.951,3.951,0,0,1,6.621-1.369,5.1,5.1,0,0,1,6.1-3.679,5.124,5.124,0,0,1,6.621-6,3.991,3.991,0,0,1,8.179-7.666,4.75,4.75,0,0,1,10.665-8.287Zm0,8.909A2.924,2.924,0,0,0,12.49.046,3.543,3.543,0,0,0,13.634-1.51a5.844,5.844,0,0,0,.388-2.17,5.881,5.881,0,0,0-.388-2.182A3.587,3.587,0,0,0,12.49-7.423a2.9,2.9,0,0,0-1.825-.582,2.9,2.9,0,0,0-1.825.582A3.587,3.587,0,0,0,7.7-5.862a5.881,5.881,0,0,0-.388,2.182A5.844,5.844,0,0,0,7.7-1.51,3.543,3.543,0,0,0,8.84.046,2.924,2.924,0,0,0,10.665.622ZM16.12.686a.781.781,0,0,0,.42-.717V-7.353a.781.781,0,0,0-.42-.717v-.1h3.192a4.739,4.739,0,0,1,2.454.6A3.89,3.89,0,0,1,23.3-5.945a4.942,4.942,0,0,1,.515,2.253,4.779,4.779,0,0,1-.528,2.234A4.015,4.015,0,0,1,21.734.167a4.744,4.744,0,0,1-2.422.621H16.12ZM17.646-7.89v8.4H19.26a2.942,2.942,0,0,0,1.818-.563A3.488,3.488,0,0,0,22.217-1.58,5.588,5.588,0,0,0,22.6-3.692,5.621,5.621,0,0,0,22.223-5.8a3.43,3.43,0,0,0-1.138-1.517,3.013,3.013,0,0,0-1.812-.576ZM24.7.686a.7.7,0,0,0,.42-.627v-7.5a.7.7,0,0,0-.42-.627v-.1h5.684l.229.768h-.1a1.379,1.379,0,0,0-.954-.486H26.228v3.123h2.06a.764.764,0,0,0,.725-.435h.1v1.139h-.1a.784.784,0,0,0-.725-.422h-2.06V.506h3.84A1.379,1.379,0,0,0,31.022.02h.1l-.229.768H24.7ZM34.811-4.281a7.949,7.949,0,0,1,.922-3.8,6.971,6.971,0,0,1,2.581-2.733,7.158,7.158,0,0,1,3.783-1,5.8,5.8,0,0,1,1.43.166,12.064,12.064,0,0,1,1.354.435q.14.051.235.083t.159.058a.492.492,0,0,0,.178.026.747.747,0,0,0,.432-.141h.076v1.562h-.076a3.449,3.449,0,0,0-.757-.883,4.2,4.2,0,0,0-1.284-.73,5.008,5.008,0,0,0-1.774-.294,5.233,5.233,0,0,0-2.842.877A6.563,6.563,0,0,0,36.973-8.14,7.97,7.97,0,0,0,36.1-4.332a7.826,7.826,0,0,0,.992,3.91,7.428,7.428,0,0,0,2.651,2.765,6.766,6.766,0,0,0,3.567,1,2.985,2.985,0,0,0,1.965-.493,1.532,1.532,0,0,0,.553-1.184V-4.69H42.186a.645.645,0,0,0-.572.41h-.1v-.768h5.836v.1a.939.939,0,0,0-.286.282.724.724,0,0,0-.134.422V1.735a.77.77,0,0,0,.432.73v.1a1.583,1.583,0,0,0-.521.16q-.369.16-.445.2a13.145,13.145,0,0,1-1.748.57,7.274,7.274,0,0,1-1.786.237A8.177,8.177,0,0,1,38.4,2.58,7.2,7.2,0,0,1,35.695-.4,8.808,8.808,0,0,1,34.811-4.281Zm18-4.006a4.75,4.75,0,0,1,2.486.621A3.991,3.991,0,0,1,56.859-6a5.124,5.124,0,0,1,.521,2.323,4.968,4.968,0,0,1-.534,2.3A4.077,4.077,0,0,1,55.276.282,4.7,4.7,0,0,1,52.816.9,4.789,4.789,0,0,1,50.33.289a3.951,3.951,0,0,1-1.558-1.658,5.1,5.1,0,0,1-.521-2.31A5.124,5.124,0,0,1,48.772-6,3.991,3.991,0,0,1,50.33-7.666,4.75,4.75,0,0,1,52.816-8.287Zm0,8.909A2.924,2.924,0,0,0,54.641.046,3.543,3.543,0,0,0,55.785-1.51a5.844,5.844,0,0,0,.388-2.17,5.881,5.881,0,0,0-.388-2.182,3.587,3.587,0,0,0-1.144-1.562,2.9,2.9,0,0,0-1.825-.582,2.9,2.9,0,0,0-1.825.582,3.587,3.587,0,0,0-1.144,1.562,5.881,5.881,0,0,0-.388,2.182,5.844,5.844,0,0,0,.388,2.17A3.542,3.542,0,0,0,50.991.046,2.924,2.924,0,0,0,52.816.622Zm9.892-8.909a4.75,4.75,0,0,1,2.486.621A3.991,3.991,0,0,1,66.752-6a5.124,5.124,0,0,1,.521,2.323,4.968,4.968,0,0,1-.534,2.3A4.077,4.077,0,0,1,65.169.282,4.7,4.7,0,0,1,62.708.9,4.789,4.789,0,0,1,60.223.289a3.951,3.951,0,0,1-1.558-1.658,5.1,5.1,0,0,1-.521-2.31A5.124,5.124,0,0,1,58.665-6a3.991,3.991,0,0,1,1.558-1.664A4.75,4.75,0,0,1,62.708-8.287Zm0,8.909A2.924,2.924,0,0,0,64.533.046,3.542,3.542,0,0,0,65.677-1.51a5.844,5.844,0,0,0,.388-2.17,5.881,5.881,0,0,0-.388-2.182,3.587,3.587,0,0,0-1.144-1.562,2.9,2.9,0,0,0-1.825-.582,2.9,2.9,0,0,0-1.825.582,3.587,3.587,0,0,0-1.144,1.562,5.881,5.881,0,0,0-.388,2.182,5.844,5.844,0,0,0,.388,2.17A3.542,3.542,0,0,0,60.884.046,2.924,2.924,0,0,0,62.708.622Zm5.455.064a.781.781,0,0,0,.42-.717V-7.353a.781.781,0,0,0-.42-.717v-.1h3.192a4.739,4.739,0,0,1,2.454.6,3.89,3.89,0,0,1,1.532,1.626,4.943,4.943,0,0,1,.515,2.253,4.779,4.779,0,0,1-.528,2.234A4.015,4.015,0,0,1,73.777.167a4.744,4.744,0,0,1-2.422.621H68.163ZM69.689-7.89v8.4H71.3a2.942,2.942,0,0,0,1.818-.563A3.488,3.488,0,0,0,74.26-1.58a5.588,5.588,0,0,0,.388-2.112A5.621,5.621,0,0,0,74.266-5.8a3.43,3.43,0,0,0-1.138-1.517,3.013,3.013,0,0,0-1.812-.576Z" transform="translate(249 73.439)" fill="#474737" stroke="#474737" stroke-width="0.4"/><path d="M.48-4.161a7.949,7.949,0,0,1,.922-3.8A6.971,6.971,0,0,1,3.983-10.7a7.158,7.158,0,0,1,3.783-1,5.8,5.8,0,0,1,1.43.166,12.063,12.063,0,0,1,1.354.435q.14.051.235.083t.159.058a.492.492,0,0,0,.178.026.747.747,0,0,0,.432-.141h.076v1.562h-.076a3.449,3.449,0,0,0-.757-.883,4.2,4.2,0,0,0-1.284-.73,5.008,5.008,0,0,0-1.774-.294,5.233,5.233,0,0,0-2.842.877A6.563,6.563,0,0,0,2.642-8.02a7.97,7.97,0,0,0-.877,3.808A7.826,7.826,0,0,0,2.756-.3,7.428,7.428,0,0,0,5.407,2.463a6.766,6.766,0,0,0,3.567,1,7.642,7.642,0,0,0,2.009-.237,6.115,6.115,0,0,0,1.392-.538,9.66,9.66,0,0,0,1.036-.685l.064.051A6.848,6.848,0,0,1,8.529,3.852,8.177,8.177,0,0,1,4.066,2.7a7.2,7.2,0,0,1-2.7-2.982A8.808,8.808,0,0,1,.48-4.161ZM10.665-8.3a4.75,4.75,0,0,1,2.486.621A3.991,3.991,0,0,1,14.708-6.01a5.124,5.124,0,0,1,.521,2.323,4.968,4.968,0,0,1-.534,2.3A4.077,4.077,0,0,1,13.125.274,4.7,4.7,0,0,1,10.665.9,4.789,4.789,0,0,1,8.179.281,3.951,3.951,0,0,1,6.621-1.377,5.1,5.1,0,0,1,6.1-3.687,5.124,5.124,0,0,1,6.621-6.01,3.991,3.991,0,0,1,8.179-7.674,4.75,4.75,0,0,1,10.665-8.3Zm0,8.909A2.924,2.924,0,0,0,12.49.038a3.543,3.543,0,0,0,1.144-1.555,5.844,5.844,0,0,0,.388-2.17,5.881,5.881,0,0,0-.388-2.182A3.587,3.587,0,0,0,12.49-7.431a2.9,2.9,0,0,0-1.825-.582,2.9,2.9,0,0,0-1.825.582A3.587,3.587,0,0,0,7.7-5.87a5.881,5.881,0,0,0-.388,2.182A5.844,5.844,0,0,0,7.7-1.518,3.543,3.543,0,0,0,8.84.038,2.924,2.924,0,0,0,10.665.614ZM16.12.678a.781.781,0,0,0,.42-.717V-7.361a.781.781,0,0,0-.42-.717v-.1h3.192a4.739,4.739,0,0,1,2.454.6A3.89,3.89,0,0,1,23.3-5.953,4.942,4.942,0,0,1,23.812-3.7a4.779,4.779,0,0,1-.528,2.234A4.015,4.015,0,0,1,21.734.159,4.744,4.744,0,0,1,19.311.78H16.12ZM17.646-7.9V.5H19.26a2.942,2.942,0,0,0,1.818-.563,3.488,3.488,0,0,0,1.138-1.523A5.588,5.588,0,0,0,22.6-3.7a5.621,5.621,0,0,0-.381-2.106,3.43,3.43,0,0,0-1.138-1.517A3.013,3.013,0,0,0,19.273-7.9ZM24.7.678a.7.7,0,0,0,.42-.627v-7.5a.7.7,0,0,0-.42-.627v-.1h5.684l.229.768h-.1A1.379,1.379,0,0,0,29.56-7.9H26.228v3.123h2.06a.764.764,0,0,0,.725-.435h.1v1.139h-.1a.784.784,0,0,0-.725-.422h-2.06V.5h3.84a1.379,1.379,0,0,0,.954-.486h.1L30.895.78H24.7ZM51.532-10.74v.1a1.049,1.049,0,0,0-.362.256,1.288,1.288,0,0,0-.273.461L45.912,3.468h-.127L43.1-4.2,40.253,3.468h-.127L35.447-9.921a1.257,1.257,0,0,0-.28-.442,1.252,1.252,0,0,0-.356-.275v-.1h2.123v.1a.862.862,0,0,0-.229.2.479.479,0,0,0-.1.307.662.662,0,0,0,.038.2l3.9,11.558,2.39-6.323L41.105-9.921a1.257,1.257,0,0,0-.28-.442,1.252,1.252,0,0,0-.356-.275v-.1h2.123v.1a.862.862,0,0,0-.229.2.479.479,0,0,0-.1.307.661.661,0,0,0,.038.2l1.233,3.648,1.373-3.648a.86.86,0,0,0,.051-.294.512.512,0,0,0-.064-.262.4.4,0,0,0-.165-.16v-.1h1.144v.1a1.126,1.126,0,0,0-.636.717L43.7-5.786l2.5,7.424L50.565-9.921a.86.86,0,0,0,.051-.294.512.512,0,0,0-.064-.262.4.4,0,0,0-.165-.16v-.1Zm0,11.418a.7.7,0,0,0,.42-.627v-7.5a.7.7,0,0,0-.42-.627v-.1h5.684l.229.768h-.1a1.379,1.379,0,0,0-.954-.486H53.057v3.123h2.06a.764.764,0,0,0,.725-.435h.1v1.139h-.1a.784.784,0,0,0-.725-.422h-2.06V.5H56.9a1.379,1.379,0,0,0,.954-.486h.1L57.724.78H51.532ZM63.2.5a1,1,0,0,0,.521-.154,1.907,1.907,0,0,0,.42-.333h.1L64.018.78h-5.3v-.1a.763.763,0,0,0,.42-.717V-7.361a.763.763,0,0,0-.42-.717v-.1h1.945v.1a.781.781,0,0,0-.42.717V.5ZM69.5.5A1,1,0,0,0,70.02.345a1.907,1.907,0,0,0,.42-.333h.1L70.312.78h-5.3v-.1a.763.763,0,0,0,.42-.717V-7.361a.763.763,0,0,0-.42-.717v-.1h1.945v.1a.781.781,0,0,0-.42.717V.5Z" transform="translate(340.939 62.399)" fill="#474737" stroke="#474737" stroke-width="0.4"/><g transform="matrix(-0.966, -0.259, 0.259, -0.966, 336.78, 66.764)"><g transform="translate(0 0)" clip-path="url(#a)"><path d="M26.51,4.774c.006,3.57-3.543,5.7-6.977,5.692-4.922-.008-8.666-2.9-11.968-5.456A28.46,28.46,0,0,0,2.81,1.793a20.777,20.777,0,0,1,2.76,3.559C7,7.471,8.473,9.663,10.2,10.078l.332.08-.23.23a1.562,1.562,0,0,1-.962.29c-1.632,0-3.6-1.811-4.437-2.871a2.816,2.816,0,0,1-2,2.154l-.448.085.221-.362C4.01,7.5,2.835,2.58.614,1.063L0,.644l.334,0c2.23.01,4.825,1.223,6.928,2.318,1.892.985,3.679,1.915,5.309,1.918,1.861,0,2.25-.878,2.249-1.618a1.261,1.261,0,0,0-.75-1.129.742.742,0,0,1,.16.454.883.883,0,0,1-1.758,0,.96.96,0,0,1,1.034-.941,1.666,1.666,0,0,1,1.732,1.62c0,.6-.257,2-2.666,2C10.831,5.253,9,4.3,7.056,3.287A25.248,25.248,0,0,0,3.092,1.5,29.452,29.452,0,0,1,7.837,4.722c3.247,2.511,6.928,5.357,11.7,5.365,3.229.005,6.565-1.981,6.559-5.314A4.312,4.312,0,0,0,21.754.414c-2.28,0-3.871,1.321-3.868,3.223a2.788,2.788,0,0,0,2.927,2.874,1.881,1.881,0,0,0,2.119-1.72,1.369,1.369,0,0,0-1.48-1.37,1.566,1.566,0,0,0-.348.041.846.846,0,0,1,.68.795.916.916,0,0,1-1.822,0,1.109,1.109,0,0,1,.02-.172,1.373,1.373,0,0,1,1.469-1.038,1.772,1.772,0,0,1,1.9,1.749,2.265,2.265,0,0,1-2.536,2.1,3.173,3.173,0,0,1-3.345-3.253c0-2.09,1.8-3.6,4.285-3.6A4.707,4.707,0,0,1,26.51,4.774" transform="translate(0 0)" fill="#666656"/></g></g><g transform="matrix(0.966, 0.259, -0.259, 0.966, 330.058, 64.354)"><g transform="translate(0 0)" clip-path="url(#b)"><path d="M26.51,4.774c.006,3.57-3.543,5.7-6.977,5.692-4.922-.008-8.666-2.9-11.968-5.456A28.46,28.46,0,0,0,2.81,1.793a20.777,20.777,0,0,1,2.76,3.559C7,7.471,8.473,9.663,10.2,10.078l.332.08-.23.23a1.562,1.562,0,0,1-.962.29c-1.632,0-3.6-1.811-4.437-2.871a2.816,2.816,0,0,1-2,2.154l-.448.085.221-.362C4.01,7.5,2.835,2.58.614,1.063L0,.644l.334,0c2.23.01,4.825,1.223,6.928,2.318,1.892.985,3.679,1.915,5.309,1.918,1.861,0,2.25-.878,2.249-1.618a1.261,1.261,0,0,0-.75-1.129.742.742,0,0,1,.16.454.883.883,0,0,1-1.758,0,.96.96,0,0,1,1.034-.941,1.666,1.666,0,0,1,1.732,1.62c0,.6-.257,2-2.666,2C10.831,5.253,9,4.3,7.056,3.287A25.248,25.248,0,0,0,3.092,1.5,29.452,29.452,0,0,1,7.837,4.722c3.247,2.511,6.928,5.357,11.7,5.365,3.229.005,6.565-1.981,6.559-5.314A4.312,4.312,0,0,0,21.754.414c-2.28,0-3.871,1.321-3.868,3.223a2.788,2.788,0,0,0,2.927,2.874,1.881,1.881,0,0,0,2.119-1.72,1.369,1.369,0,0,0-1.48-1.37,1.566,1.566,0,0,0-.348.041.846.846,0,0,1,.68.795.916.916,0,0,1-1.822,0,1.109,1.109,0,0,1,.02-.172,1.373,1.373,0,0,1,1.469-1.038,1.772,1.772,0,0,1,1.9,1.749,2.265,2.265,0,0,1-2.536,2.1,3.173,3.173,0,0,1-3.345-3.253c0-2.09,1.8-3.6,4.285-3.6A4.707,4.707,0,0,1,26.51,4.774" transform="translate(0 0)" fill="#666656"/></g></g></g></svg>
