<svg width="148" height="16" viewBox="0 0 148 16" fill="none" xmlns="http://www.w3.org/2000/svg">
<path d="M147.62 15.91L147.62 14.77L106.75 14.77C99 14.77 93.74 11.2 88.65 7.74C88.16 7.4 87.67 7.07 87.18 6.75C87.68 5.73 87.4 4.48 86.45 3.79C85.41 3.04 83.97 3.26 83.2 4.28C80.98 3.06 78.67 2.13 76.09 1.78C75.83 0.759997 74.91 -2.54181e-06 73.81 -2.63798e-06C72.71 -2.73414e-06 71.79 0.759997 71.53 1.78C68.95 2.14 66.64 3.07 64.42 4.28C63.65 3.27 62.21 3.04 61.17 3.79C60.22 4.47 59.94 5.73 60.44 6.75C59.95 7.08 59.46 7.41 58.97 7.74C53.89 11.19 48.63 14.77 40.87 14.77L9.9662e-08 14.77L0 15.91L147.62 15.91ZM66.53 11.19C67 10.85 67.13 10.29 67.06 9.63C68.72 8.84 70.52 8.37 72.43 8.21C72.77 8.77 73.23 9.14 73.85 9.14C74.42 9.14 74.85 8.77 75.17 8.21C77.08 8.36 78.88 8.84 80.55 9.63C80.48 10.29 80.61 10.85 81.08 11.19C81.66 11.61 82.35 11.5 83.06 11.13C84.4 12.11 85.63 13.33 86.73 14.78L81.82 14.78C79.82 12.64 76.97 11.29 73.8 11.29C70.64 11.29 67.81 12.64 65.81 14.78L60.9 14.78C62 13.33 63.23 12.11 64.57 11.13C65.28 11.51 65.97 11.61 66.55 11.19L66.53 11.19ZM76.15 2.95C78.44 3.3 80.52 4.14 82.53 5.23C81.95 6.11 81.21 7.37 80.8 8.53C79.17 7.78 77.43 7.31 75.61 7.12C76.02 5.74 76.13 3.99 76.15 2.95ZM71.95 7.12C70.14 7.31 68.4 7.79 66.78 8.53C66.38 7.36 65.63 6.1 65.05 5.23C67.06 4.14 69.14 3.3 71.43 2.95C71.44 3.98 71.53 5.73 71.95 7.12V7.12ZM99.3 14.77L88.12 14.77C86.92 13.07 85.54 11.62 84.02 10.46C85.02 9.63 85.96 8.47 86.54 7.69C87.03 8.02 87.52 8.35 88.01 8.68C91.45 11.02 94.98 13.4 99.3 14.76L99.3 14.77ZM59.59 8.68C60.08 8.35 60.57 8.01 61.06 7.69C61.64 8.47 62.58 9.63 63.58 10.46C62.06 11.62 60.68 13.06 59.48 14.77L48.3 14.77C52.62 13.41 56.15 11.02 59.59 8.68Z" fill="#C2C2B2"/>
</svg>
