<?xml version="1.0" encoding="UTF-8"?><svg id="Layer_2" xmlns="http://www.w3.org/2000/svg" viewBox="0 0 518 48"><defs><style>.cls-1{fill:#c2c2b2;}</style></defs><g id="Favicon"><g><path class="cls-1" d="M253.38,47.74c0-3.42,2.78-6.2,6.2-6.2s6.2,2.77,6.2,6.2c0,.09,0,.17-.01,.26h19.15c0-.09,0-.17,0-.26,0-13.99-11.35-25.33-25.34-25.33s-25.34,11.34-25.34,25.33c0,.09,0,.17,0,.26h19.15c0-.09-.01-.17-.01-.26Zm26.38-8.01c1.07,2.71,.39,5.38-3.27,6.83-3.67,1.45-9.26,.18-10.01-1.59-.82-1.94,2.36-6.5,6.02-7.95,3.67-1.45,6.18,0,7.25,2.71Zm-18.62-8.71c1.57-3.62,4.37-4.38,7.04-3.21,2.68,1.16,4.08,3.53,2.52,7.14-1.57,3.62-6.42,6.68-8.2,5.95-1.95-.79-2.93-6.26-1.36-9.88Zm-9.57-3.46c2.71-1.07,5.38-.39,6.83,3.27,1.45,3.67,.18,9.26-1.59,10-1.94,.82-6.5-2.36-7.95-6.02-1.45-3.67,0-6.18,2.71-7.25Zm1.17,17.26c-.79,1.95-6.26,2.93-9.88,1.36-3.62-1.57-4.38-4.37-3.21-7.04,1.16-2.68,3.53-4.08,7.14-2.52,3.62,1.57,6.68,6.42,5.95,8.2Z"/><path class="cls-1" d="M451.05,43.89l.04,.38c.05,.25,.12,.49,.2,.73,.18,.46,.42,.86,.7,1.21,.56,.67,1.19,1.14,1.84,1.49-.18,.09-.36,.19-.54,.3h9.08l.74-.14-3.17-.85c-1.15-.31-2.24-.62-3.2-1.09-.95-.44-1.83-1.04-2.21-1.63-.1-.14-.15-.27-.2-.39,0-.06-.02-.11-.04-.16,0-.03,0-.05,0-.08v-.04h0v-.16c.02-.08,.02-.17,.03-.14,.03-.01-.02,.03,.02-.06,.04-.12,.1-.27,.2-.42,.37-.65,1.23-1.35,2.21-1.86,.98-.49,2.18-.78,3.26-.78,1.27,.03,2.35,.17,3.53,.42,1.17,.23,2.35,.56,3.52,.88,1.17,.33,2.34,.69,3.51,1.05l3.51,1.09,3.53,1.05c2.36,.68,4.74,1.31,7.15,1.81l1.81,.38,1.82,.31c1.05,.2,2.12,.33,3.18,.47-.86,.11-1.71,.21-2.57,.34h29.02v-.85h-20.48v.09c-.59,0-1.18-.01-1.77-.04-1.21-.1-2.43-.14-3.64-.29-1.21-.16-2.42-.26-3.62-.5l-1.8-.32-1.79-.39c-2.38-.51-4.74-1.16-7.08-1.86-2.34-.7-4.65-1.51-6.97-2.29l-3.49-1.17c-1.17-.38-2.35-.75-3.57-1.04-1.2-.32-2.55-.53-3.73-.6-1.37-.05-2.62,0-3.98,.23-1.33,.25-2.77,.67-3.97,1.93-.29,.32-.56,.7-.75,1.15-.1,.18-.19,.54-.25,.81-.04,.18-.04,.23-.05,.31l-.02,.23v.49Z"/><path class="cls-1" d="M262.86,47.74c0-1.81-1.47-3.28-3.28-3.28s-3.28,1.47-3.28,3.28c0,.09,.02,.17,.03,.26h6.51c0-.09,.03-.17,.03-.26Z"/><path class="cls-1" d="M219.84,48c0-.09,.03-.17,.03-.26,0-2.14-1.74-3.88-3.88-3.88-1.22,0-2.3,.58-3.01,1.46-1.51,1.57-4.01,1.91-5.59,1.94,.05-.68,.16-1.37,.37-2.01,.27-.8,.65-1.55,1.14-2.22,.5-.66,1.06-1.25,1.7-1.73,.66-.45,1.34-.84,2.06-1.09,.71-.25,1.47-.41,2.14-.43,.31-.04,.73,0,1.11,0,.28,.03,.67,.08,.98,.14,1.31,.28,2.43,.85,3.32,1.53,.87,.7,1.53,1.49,1.98,2.25,.45,.77,.7,1.5,.85,2.1,.07,.31,.14,.58,.16,.78,.03,.2,.07,.39,.07,.62,.01,.29,.02,.47,.02,.56,0,.02,0,.12-.01,.24h3.19v-.34l-.02-.63c0-.18-.04-.49-.1-.87-.05-.39-.14-.78-.27-1.21-.26-.86-.66-1.89-1.4-2.89-.72-1-1.71-2.03-3.01-2.79-1.29-.76-2.87-1.27-4.55-1.35-.43,0-.81,0-1.3,.03-.39,.05-.75,.08-1.21,.19-.89,.17-1.68,.5-2.47,.89-1.56,.81-2.9,2.07-3.84,3.59-.46,.77-.81,1.6-1.07,2.46-.18,.68-.28,1.37-.32,2.07H118.91c-10.89,0-21.74-.98-27.42-8.06l-.36-.44-.46,.34c-3.79,2.82-4.51,6.47-4.63,8.16h-1.39c-.12-2.17-.9-4.19-2.3-4.19s-2.18,2.02-2.3,4.19h-1.1c-.3-2.56-2.45-4.55-5.08-4.55-2.84,0-5.14,2.31-5.14,5.14,0,.09,.02,.17,.03,.26H219.84Z"/><path class="cls-1" d="M114.13,36.82l61.55-.09s21.89,.02,25.07,.02c1.99,0,2.62-.42,3.88-1.96,.8-.98,5.08-5.91,10.89-6.34,3.48-.26,6.9,1.13,10.13,4.09,.49,.54,1.14,.78,1.82,.67,.75-.12,1.45-.64,1.76-1.31,4.47-9.77,15.59-19.64,30.34-19.64s25.87,9.86,30.34,19.64c.3,.66,1.01,1.19,1.76,1.31,.68,.11,1.33-.13,1.79-.63,3.27-3,6.69-4.39,10.17-4.13,5.81,.43,10.09,5.35,10.89,6.34,1.26,1.55,1.88,1.96,3.88,1.96,3.19,0,25.07-.02,25.07-.02l61.55,.09c7.12,0,15.43-2.83,15.43-10.82,0-4.09-2.65-6.8-5.44-7.37-.05-.01-.1-.02-.15-.02-.3-.05-.6-.09-.9-.09-.01,0-.02,0-.03,0h-.03c-2.82,.02-5.12,2.32-5.12,5.14s2.31,5.14,5.14,5.14c2.69,0,4.88-2.08,5.1-4.71,.16,.59,.25,1.23,.25,1.92,0,7.12-7.68,9.64-14.25,9.64l-61.55-.09s-21.88,.02-25.07,.02c-1.53,0-1.86-.17-2.96-1.53-1.2-1.47-5.58-6.32-11.72-6.77-3.83-.28-7.53,1.21-11.09,4.47-.23,.25-.48,.34-.77,.3-.39-.06-.75-.37-.87-.64-4.63-10.12-16.13-20.33-31.41-20.33s-26.79,10.21-31.41,20.33c-.12,.26-.48,.57-.87,.64-.29,.04-.55-.05-.81-.34-3.52-3.22-7.25-4.71-11.05-4.44-6.14,.45-10.52,5.29-11.72,6.77-1.1,1.36-1.44,1.53-2.96,1.53-3.19,0-25.07-.02-25.07-.02l-61.55,.09c-6.58,0-14.26-2.53-14.26-9.64,0-.69,.09-1.33,.25-1.92,.22,2.63,2.41,4.71,5.1,4.71,2.84,0,5.14-2.31,5.14-5.14s-2.29-5.12-5.12-5.14h-.02s-.02,0-.03,0c-.3,0-.6,.04-.9,.09-.05,0-.1,.01-.14,.02-2.79,.58-5.45,3.29-5.45,7.37,0,7.99,8.31,10.82,15.43,10.82Z"/><path class="cls-1" d="M29.02,48c-.85-.13-1.71-.23-2.57-.34,1.06-.14,2.13-.28,3.18-.47l1.82-.31,1.81-.38c2.41-.5,4.79-1.13,7.15-1.81l3.53-1.05,3.51-1.09c1.17-.36,2.34-.72,3.51-1.05,1.17-.33,2.34-.65,3.52-.88,1.18-.26,2.26-.39,3.53-.42,1.08,0,2.29,.3,3.26,.78,.98,.5,1.84,1.21,2.21,1.86,.1,.15,.16,.3,.2,.42,.04,.09-.01,.05,.02,.06,.01-.03,.02,.06,.02,.14v.15h.01v.04s0,.05,0,.08c-.02,.05-.03,.1-.04,.16-.05,.11-.1,.25-.2,.39-.38,.59-1.26,1.19-2.21,1.63-.96,.47-2.05,.78-3.2,1.09l-3.37,.73,1.22,.27h8.8c-.18-.11-.36-.21-.54-.3,.65-.35,1.28-.82,1.84-1.49,.27-.35,.52-.75,.7-1.21,.08-.24,.14-.48,.2-.73l.04-.38,.02-.19v-.3l-.03-.23c0-.07,0-.13-.05-.31-.06-.28-.15-.63-.25-.81-.19-.45-.46-.83-.75-1.15-1.2-1.27-2.64-1.68-3.97-1.93-1.36-.23-2.62-.28-3.98-.23-1.18,.07-2.53,.28-3.73,.6-1.22,.29-2.4,.67-3.57,1.04l-3.49,1.17c-2.32,.79-4.63,1.59-6.97,2.29-2.34,.69-4.69,1.34-7.08,1.86l-1.79,.39-1.8,.32c-1.2,.24-2.41,.34-3.62,.5-1.21,.16-2.43,.19-3.64,.29-.59,.03-1.18,.04-1.77,.04v-.09H0v.85H29.02Z"/><path class="cls-1" d="M311.09,47.15c-.05-.7-.14-1.39-.32-2.07-.26-.86-.61-1.69-1.07-2.46-.94-1.52-2.28-2.78-3.84-3.59-.79-.39-1.58-.72-2.47-.89-.46-.11-.82-.14-1.21-.19-.49-.04-.86-.04-1.3-.03-1.67,.07-3.25,.58-4.55,1.35-1.31,.76-2.29,1.79-3.01,2.79-.74,1-1.14,2.04-1.4,2.89-.13,.43-.22,.82-.27,1.21-.06,.38-.1,.69-.1,.87-.02,.41-.04,.63-.04,.63v.08s0,.1,.01,.26h3.19c0-.12,0-.22-.01-.24,0-.09,.01-.28,.02-.56,0-.23,.03-.42,.07-.62,.02-.21,.08-.47,.16-.78,.16-.6,.4-1.34,.85-2.1,.45-.77,1.11-1.55,1.98-2.25,.89-.68,2.01-1.25,3.32-1.53,.31-.06,.7-.11,.98-.14,.38,0,.8-.04,1.11,0,.67,.02,1.44,.18,2.14,.43,.72,.25,1.41,.64,2.06,1.09,.64,.48,1.2,1.08,1.7,1.73,.49,.67,.87,1.42,1.14,2.22,.21,.65,.32,1.34,.37,2.01-1.57-.03-4.08-.36-5.58-1.94-.71-.88-1.79-1.46-3.01-1.46-2.14,0-3.88,1.74-3.88,3.88,0,.09,.02,.17,.03,.26h151.08c0-.09,.03-.17,.03-.26,0-2.84-2.31-5.14-5.14-5.14-2.64,0-4.79,2-5.08,4.55h-1.1c-.12-2.17-.9-4.19-2.3-4.19s-2.18,2.02-2.3,4.19h-1.39c-.12-1.69-.84-5.34-4.63-8.16l-.46-.34-.36,.44c-5.68,7.08-16.53,8.06-27.42,8.06h-88.01Z"/><path class="cls-1" d="M159.54,33.86c3.12,0,5.64-1.37,5.64-3.06s-2.53-3.06-5.64-3.06-5.64,1.37-5.64,3.06,2.53,3.06,5.64,3.06Z"/><path class="cls-1" d="M259.58,9.11c2.52,0,4.56-2.04,4.56-4.55s-2.04-4.55-4.56-4.55-4.56,2.04-4.56,4.55,2.04,4.55,4.56,4.55Z"/><ellipse class="cls-1" cx="359.61" cy="30.8" rx="5.64" ry="3.06"/></g></g></svg>