<?xml version="1.0" encoding="UTF-8"?><svg id="Layer_2" xmlns="http://www.w3.org/2000/svg" xmlns:xlink="http://www.w3.org/1999/xlink" viewBox="0 0 163.44 83.4"><defs><style>.cls-1{fill:url(#linear-gradient);}.cls-2{fill:url(#linear-gradient-8);}.cls-3{fill:url(#linear-gradient-9);}.cls-4{fill:url(#linear-gradient-3);}.cls-5{fill:url(#linear-gradient-4);}.cls-6{fill:url(#linear-gradient-2);}.cls-7{fill:url(#linear-gradient-6);}.cls-8{fill:url(#linear-gradient-7);}.cls-9{fill:url(#linear-gradient-5);}.cls-10{fill:url(#linear-gradient-14);}.cls-11{fill:url(#linear-gradient-18);}.cls-12{fill:url(#linear-gradient-20);}.cls-13{fill:url(#linear-gradient-21);}.cls-14{fill:url(#linear-gradient-15);}.cls-15{fill:url(#linear-gradient-19);}.cls-16{fill:url(#linear-gradient-16);}.cls-17{fill:url(#linear-gradient-17);}.cls-18{fill:url(#linear-gradient-13);}.cls-19{fill:url(#linear-gradient-12);}.cls-20{fill:url(#linear-gradient-10);}.cls-21{fill:url(#linear-gradient-11);}</style><linearGradient id="linear-gradient" x1="14.03" y1="17.67" x2="25.14" y2="9.89" gradientTransform="matrix(1, 0, 0, 1, 0, 0)" gradientUnits="userSpaceOnUse"><stop offset="0" stop-color="#ffffef"/><stop offset="1" stop-color="#c2c2b2"/></linearGradient><linearGradient id="linear-gradient-2" x1="19.89" y1="20.55" x2="29.16" y2="14.07" xlink:href="#linear-gradient"/><linearGradient id="linear-gradient-3" x1="27.09" y1="19.49" x2="35" y2="13.95" xlink:href="#linear-gradient"/><linearGradient id="linear-gradient-4" x1="-4.29" y1="44.91" x2="16.31" y2="30.5" xlink:href="#linear-gradient"/><linearGradient id="linear-gradient-5" x1="16.28" y1="49.63" x2="37.55" y2="34.74" xlink:href="#linear-gradient"/><linearGradient id="linear-gradient-6" x1="30.37" y1="42.24" x2="48.3" y2="29.68" xlink:href="#linear-gradient"/><linearGradient id="linear-gradient-7" x1="41.44" y1="42.18" x2="66.3" y2="24.78" xlink:href="#linear-gradient"/><linearGradient id="linear-gradient-8" x1="64.42" y1="37.25" x2="83.09" y2="24.17" xlink:href="#linear-gradient"/><linearGradient id="linear-gradient-9" x1="75.92" y1="34.93" x2="94.04" y2="22.24" xlink:href="#linear-gradient"/><linearGradient id="linear-gradient-10" x1="86.15" y1="33.22" x2="107.72" y2="18.12" xlink:href="#linear-gradient"/><linearGradient id="linear-gradient-11" x1="103.64" y1="31.28" x2="121.48" y2="18.79" xlink:href="#linear-gradient"/><linearGradient id="linear-gradient-12" x1="118.98" y1="29.55" x2="140.13" y2="14.74" xlink:href="#linear-gradient"/><linearGradient id="linear-gradient-13" x1="134.91" y1="26.99" x2="155.53" y2="12.55" xlink:href="#linear-gradient"/><linearGradient id="linear-gradient-14" x1="36.39" y1="75.26" x2="63.55" y2="56.25" xlink:href="#linear-gradient"/><linearGradient id="linear-gradient-15" x1="58.19" y1="69.75" x2="78.5" y2="55.53" xlink:href="#linear-gradient"/><linearGradient id="linear-gradient-16" x1="79.76" y1="69.99" x2="94.97" y2="59.34" xlink:href="#linear-gradient"/><linearGradient id="linear-gradient-17" x1="87.43" y1="63.47" x2="102.14" y2="53.17" xlink:href="#linear-gradient"/><linearGradient id="linear-gradient-18" x1="96.48" y1="63.16" x2="116.7" y2="48.99" xlink:href="#linear-gradient"/><linearGradient id="linear-gradient-19" x1="112.17" y1="60.63" x2="129.46" y2="48.53" xlink:href="#linear-gradient"/><linearGradient id="linear-gradient-20" x1="125.63" y1="58.98" x2="142.75" y2="46.99" xlink:href="#linear-gradient"/><linearGradient id="linear-gradient-21" x1="136.25" y1="65.97" x2="159.17" y2="49.93" xlink:href="#linear-gradient"/></defs><g id="Favicon"><g id="flat-logo"><g><g><path class="cls-1" d="M11.78,10.38c.2-.27,.63-1.07,1.21-1.1,.41-.02,.62,.26,.67,.49,.01,.04,.01,.08,.01,.12,0,.28-.22,.51-.5,.52-.28,.01-.5-.2-.5-.47,0-.08,.03-.17,.05-.24,.03-.07,0-.1-.07-.08-.31,.15-.56,.53-.56,.96,0,.77,.45,1.36,1.95,1.28,2.26-.13,5.69-1.6,8.83-1.87,2.06-.18,3.12,.66,3.12,1.4,0,.12,0,.37-.21,.44,0-.5-.89-.96-2.66-.81-.67,.06-1.63,.28-2.74,.55-.42,.12-.55,.32-.55,.7v8.52c0,.71,.33,1.08,.85,1.26v.18c-1.32,.1-1.97,.15-3.29,.24v-.18c.55-.27,.85-.7,.85-1.38V12.78c0-.6-.33-.62-.7-.54-1.09,.22-2.2,.41-3.25,.46-2.3,.13-2.89-.84-2.89-1.58,0-.41,.28-.62,.37-.74Z"/><path class="cls-6" d="M24.97,21.69c.59-.3,.73-.76,.73-1.39v-3.42c-.94,.09-1.41,.13-2.35,.21v3.42c0,.7,.21,1.08,.73,1.26v.18c-1.21,.11-1.82,.16-3.03,.26v-.18c.6-.3,.72-.78,.72-1.38v-6.16c0-.71-.21-1.1-.72-1.27v-.18c1.21-.1,1.82-.15,3.03-.26v.18c-.56,.27-.73,.71-.73,1.39v2.2c.94-.08,1.41-.12,2.35-.21v-2.2c0-.71-.21-1.1-.73-1.26v-.18c1.21-.11,1.82-.17,3.03-.29v.18c-.6,.3-.72,.78-.72,1.4v6.16c0,.68,.18,1.08,.72,1.25v.18c-1.21,.12-1.82,.18-3.03,.29v-.18Z"/><path class="cls-4" d="M28.52,21.53v-.18c.6-.31,.85-.81,.85-1.41v-6.16c0-.71-.31-1.08-.85-1.24v-.18c1.99-.2,2.99-.31,4.98-.54v1.73l-.16,.02c-.35-.69-.72-1.03-1.22-.98-.47,.05-.7,.08-1.17,.13v3.06c.17-.02,.25-.03,.42-.05,.54-.06,.87-.46,1.09-.93l.21-.02v2.24l-.21,.02c-.22-.45-.56-.75-1.09-.69-.17,.02-.25,.03-.42,.05v4.26c.56-.06,.83-.09,1.39-.15,.56-.06,.88-.51,1.23-1.35l.17-.02v1.84c-2.09,.24-3.14,.36-5.23,.57Z"/></g><g><path class="cls-5" d="M0,50.55c1.47-.63,2.27-1.72,2.27-3.54,0-6.58,0-9.86,0-16.44C2.27,28.67,1.4,27.64,0,27.04v-.49c4,0,6-.05,10-.21,3.6-.15,5.98,2.17,5.98,5.88,0,3.92-2.87,6.7-6.82,6.85-1.06,.04-1.59,.06-2.66,.09v7.76c0,1.82,.98,2.92,2.66,3.45v.49c-3.67,.14-5.5,.17-9.16,.17v-.49Zm11.44-17.65c0-3.11-1.43-5.11-3.39-5.04-.62,.02-.92,.03-1.54,.05v9.79c.62-.02,.92-.03,1.54-.05,1.96-.06,3.39-1.99,3.39-4.75Z"/><path class="cls-9" d="M16.86,49.97c1.61-.8,2.27-2.12,2.27-3.69V29.84c0-1.68-.77-2.81-2.27-3.38v-.49c3.95-.26,5.92-.42,9.86-.8,3.71-.36,6.44,1.42,6.44,5.2,0,2.73-2.1,4.9-4.69,5.96,5.67,3.52,3.29,18.97,11.54,17.89,1.26-.16,2.8-1,3.57-2.33l.21-.03c0,1.43-1.4,3.67-4.72,4.09-14.55,1.87-8.81-18.75-14.44-18.24-.52,.05-.87,.39-.87,.92,0,.24,.18,.51,.42,.49,.14-.01,.31-.1,.38-.17,.07,.06,.1,.17,.1,.27,0,.45-.42,.74-.77,.77-.21,.02-.38,0-.56-.06v6.02c0,1.89,.84,2.87,2.17,3.34v.49c-3.46,.32-5.18,.46-8.64,.69v-.49Zm7.9-14.3c2.38-.22,3.85-2.23,3.85-4.81,0-2.73-1.82-4.25-3.85-4.07-.57,.05-.86,.08-1.43,.13v8.88c.57-.05,.86-.08,1.43-.13Z"/><path class="cls-7" d="M34.94,48.28c1.47-.8,2.27-1.99,2.27-3.81V28.03c0-1.89-.87-2.83-2.27-3.26v-.49c3.51-.42,5.27-.65,8.78-1.13v.49c-1.47,.83-2.27,2.02-2.27,3.84v16.44c0,1.89,.87,2.82,2.27,3.22v.49c-3.51,.49-5.27,.72-8.78,1.13v-.49Z"/><path class="cls-8" d="M59.53,45.37c-4.13-6.28-6.19-9.43-10.32-15.77v13.22c0,1.85,.28,2.9,2.13,3.21v.49c-2.49,.38-3.74,.56-6.23,.92v-.49c1.57-.85,2.24-2.24,2.24-3.85V26.66c0-1.92-.8-2.82-2.13-3.23v-.49c2.15-.3,3.23-.46,5.39-.79,3.39,5.27,5.08,7.89,8.46,13.11v-10.42c0-1.75-.63-2.8-2.41-3.14v-.49c2.56-.41,3.84-.62,6.4-1.05v.49c-1.43,.87-2.17,2.18-2.17,3.89v20.6c-.55,.09-.82,.14-1.36,.22Z"/><path class="cls-2" d="M79.19,36.29l-.28,4.7c-1.36,1.01-2.52,1.7-4.97,2.13-5.7,1-9.65-3.62-9.65-10.65,0-8.08,3.95-13.54,9.34-14.48,2.38-.42,4.48-.33,5.32,.25,.08,1.99,.13,2.98,.21,4.96l-.45,.12-.52-1.06c-.87-1.77-2.62-3.28-4.55-2.94-2.76,.48-4.58,5.38-4.58,11.81,0,7.1,2.31,11.11,4.9,10.66,2.41-.42,3.92-2.72,4.79-5.43l.45-.08Z"/><path class="cls-3" d="M80.59,41.11c1.47-.89,2.27-2.12,2.27-3.93V20.74c0-1.89-.87-2.78-2.27-3.13v-.49c3.51-.62,5.27-.93,8.78-1.55v.49c-1.47,.89-2.27,2.11-2.27,3.93v16.44c0,1.89,.87,2.78,2.27,3.13v.49c-3.51,.62-5.27,.93-8.78,1.55v-.49Z"/><path class="cls-20" d="M90.77,39.32c1.47-.89,2.27-2.11,2.27-3.93V18.95c0-1.89-.87-2.79-2.27-3.14v-.49c4-.7,6-1.05,10-1.71,3.6-.6,5.98,1.5,5.98,5.21,0,3.92-2.87,6.96-6.82,7.63-1.06,.18-1.59,.27-2.66,.45v7.76c0,1.82,.98,2.77,2.66,3.08v.49c-3.67,.62-5.5,.93-9.16,1.57v-.49Zm11.44-19.34c0-3.11-1.43-4.94-3.39-4.61-.62,.1-.92,.16-1.54,.26v9.79c.62-.1,.92-.16,1.54-.26,1.96-.33,3.39-2.42,3.39-5.18Z"/><path class="cls-21" d="M107.63,36.97v-.49c1.61-.96,2.27-2.32,2.27-3.89V16.16c0-1.68-.77-2.75-2.27-3.17v-.49c3.41-.54,5.12-.81,8.53-1.3v.49c-1.71,.91-2.06,2.23-2.06,3.84v18.78c1.32-.2,1.97-.29,3.29-.48,1.47-.21,2.31-1.59,3.39-4.71,.18-.02,.27-.04,.45-.06v5.91c-5.44,.74-8.16,1.15-13.6,2.01Z"/><path class="cls-19" d="M122.63,34.28c1.61-.88,2.27-2.22,2.27-3.83V14.02c0-1.89-.84-2.87-2.27-3.24v-.49c5.32-.7,7.97-1.02,13.29-1.55v4.62c-.17,.02-.25,.02-.42,.04-.94-1.86-1.92-2.78-3.25-2.63-1.25,.14-1.87,.21-3.11,.35v7.45c.31-.04,.46-.05,.77-.09,1.43-.17,2.31-1.24,2.9-2.49,.22-.02,.34-.04,.56-.06v5.98c-.22,.02-.34,.04-.56,.06-.59-1.2-1.5-2.01-2.9-1.84-.31,.04-.46,.05-.77,.09v12.07c.34-.04,.5-.06,.84-.1,1.96-.23,6.12-1.88,6.12-6.11,0-.42,.21-1.21-.8-1.11-.63,.06-1.22-.5-1.22-1.2,0-.73,.59-1.43,1.33-1.5h.04c.94-.06,1.5,.72,1.5,2.05,0,3.74-.49,7.56,.91,8.24v.49c-6.09,.57-9.13,.93-15.21,1.73v-.49Z"/><path class="cls-18" d="M139.07,32.44c1.61-.77,2.27-2.12,2.27-3.73V12.27c0-1.89-.87-2.87-2.27-3.34v-.49c3.26-.29,4.89-.42,8.15-.63,5.49-.35,9.13,3.32,9.13,10.52,0,8.6-3.22,13.59-8.92,13.95-3.34,.21-5.02,.34-8.36,.64v-.49Zm12.91-13.83c0-7.35-2.17-9.53-5.42-9.32-.39,.03-.59,.04-.98,.07V30.98c.71-.05,1.07-.07,1.78-.12,3.43-.21,4.62-5.43,4.62-12.25Z"/></g><g><path class="cls-10" d="M46.72,61.89c-2.42-.02-4.66-2.56-4.66-5.74,0-3.81,3.07-7.31,7.65-8,2.39-.36,4.32,.25,5.26,1.89,.68-.88,1.56-1.47,2.56-1.63,.54-.09,1.06,.53,.85,.71-.67,.6-2.93,3.48-2.93,5.56,0,1.65,.62,4.48,2.22,4.22,.26-.04,.43-.18,.28-.24-.34-.2-.54-.54-.54-.96,0-.54,.45-1.21,1.19-1.33,.74-.12,1.25,.45,1.25,1.16s-.45,2.04-2.42,2.35c-1.93,.31-3.41-.68-3.86-2.91-.65,.53-1.45,.85-2.3,.98-2.19,.33-3.64-.94-3.64-2.73,0-1.17,.85-2.71,2.27-2.53-.06,.09-.08,.18-.08,.33,0,.77,.45,1.75,1.53,1.59,1.28-.19,1.79-1.38,1.79-2.49,0-2.16-1.53-3.17-3.44-2.89-2.81,.42-4.12,3.3-4.12,6.29,0,3.44,2.59,5.2,4.38,4.93,.57-.09,1.25-.3,1.59-.55,.63,1.44-1.73,1.97-2.13,2.03-3.33,.5-7.93,4.34-7.93,10.62,0,6.96,4.23,9.69,8.33,9.08,5.29-.79,8.73-4.38,8.73-9.18,0-4.35-2.98-5.65-5.97-5.19-2.79,.43-4.52,2.53-4.52,4.94,0,1.42,.85,2.86,2.67,2.59,.99-.15,2.1-1.15,2.27-2,1.02,.01,1.56,1.09,1.56,1.94,0,1.76-1.82,3.7-4.15,4.05-3.01,.45-5.23-1.37-5.23-4.83,0-2.42,1.45-4.41,2.47-4.85-.31-.15-.54-.66-.54-1.29,0-1.82,2.42-3.39,5.4-3.85,3.47-.53,7.79,1.57,7.79,8.19,0,5.06-4.18,10.14-10.49,11.09-6.37,.95-12.25-2.37-12.25-9.93,0-6,5.14-10.63,9.15-11.41Z"/><path class="cls-14" d="M72.95,72.21c-3.35-5.06-5.03-7.6-8.38-12.68v10.74c0,1.51,.23,2.35,1.73,2.58v.4c-2.02,.35-3.04,.52-5.06,.85v-.4c1.28-.72,1.82-1.87,1.82-3.17v-13.36c0-1.56-.65-2.28-1.73-2.58v-.4c1.75-.29,2.63-.44,4.38-.74,2.75,4.23,4.13,6.34,6.88,10.55v-8.47c0-1.42-.51-2.27-1.96-2.53v-.4c2.08-.36,3.12-.54,5.2-.91v.4c-1.17,.72-1.76,1.79-1.76,3.18v16.74c-.44,.08-.67,.12-1.11,.19Z"/><path class="cls-16" d="M84.31,49.97c2.07-.37,3.87,.2,4.55,.65-.16,1.46-.24,2.19-.4,3.65l-.37,.09c-.82-2.16-1.88-3.65-3.78-3.31-2.36,.42-3.92,4.64-3.92,9.87,0,5.66,1.62,8.64,4.09,8.2,.74-.13,1.31-.71,1.31-1.37v-5.2c0-1.34-.37-2.29-1.68-2.57v-.4c2.43-.43,3.65-.64,6.08-1.07v.4c-.88,.84-1.19,1.4-1.19,3.08v7.99c0,4.01,1.17,7.33,3.15,7.35,.31,0,.28-.16,.23-.27-.03-.05-.06-.16-.06-.25,0-.6,.48-1.19,1.08-1.3,.6-.1,1.08,.33,1.08,.95s-.51,1.65-1.62,1.84c-1.85,.32-3.27-1.02-3.84-2.17-1.08,.19-1.71-.75-1.88-2.57-.28,.19-.65,.34-1.08,.42-1.25,.22-1.73-.35-1.85-.9v-.34c.99-.4,1.56-1.13,1.56-2.75-.6,.22-1.22,.39-1.9,.51-4.23,.75-7.08-3.07-7.08-8.78,0-6.57,3.01-10.96,7.5-11.76Z"/><path class="cls-17" d="M91.22,68.48c1.19-.72,1.85-1.71,1.85-3.19v-13.36c0-1.53-.71-2.26-1.85-2.55v-.4c2.85-.5,4.28-.74,7.13-1.23v.4c-1.19,.71-1.85,1.71-1.85,3.19v13.36c0,1.53,.71,2.27,1.85,2.56v.4c-2.85,.48-4.28,.73-7.13,1.23v-.4Z"/><path class="cls-11" d="M111.2,65.68c-3.35-5.13-5.03-7.69-8.38-12.79v10.74c0,1.51,.23,2.35,1.73,2.59v.4c-2.02,.33-3.04,.5-5.06,.84v-.4c1.28-.73,1.82-1.87,1.82-3.18v-13.36c0-1.56-.65-2.28-1.73-2.58v-.4c1.75-.29,2.63-.44,4.38-.73,2.75,4.24,4.13,6.37,6.88,10.64v-8.47c0-1.42-.51-2.28-1.96-2.56v-.4c2.08-.33,3.12-.49,5.2-.8v.4c-1.17,.69-1.76,1.74-1.76,3.14v16.74c-.44,.07-.67,.1-1.11,.17Z"/><path class="cls-15" d="M115.21,64.56c1.31-.73,1.85-1.83,1.85-3.14v-13.36c0-1.53-.68-2.32-1.85-2.6v-.4c4.32-.64,6.48-.93,10.8-1.47v3.75c-.14,.02-.2,.03-.34,.04-.77-1.5-1.56-2.22-2.64-2.08-1.01,.13-1.52,.2-2.53,.34v6.05c.25-.03,.38-.05,.63-.09,1.17-.16,1.88-1.05,2.36-2.08,.18-.02,.27-.04,.45-.06v4.86c-.18,.02-.27,.04-.45,.06-.48-.96-1.22-1.6-2.36-1.45-.25,.03-.38,.05-.63,.09v9.81c.27-.04,.41-.06,.68-.09,1.59-.22,4.97-1.64,4.97-5.08,0-.34,.17-.99-.65-.88-.51,.06-.99-.39-.99-.95,0-.6,.48-1.17,1.08-1.25h.03c.77-.07,1.22,.56,1.22,1.64,0,3.04-.4,6.16,.74,6.67v.4c-4.95,.6-7.42,.94-12.36,1.67v-.4Z"/><path class="cls-12" d="M128.56,62.78c1.31-.7,1.85-1.78,1.85-3.09v-13.36c0-1.53-.68-2.34-1.85-2.66v-.4c4.32-.51,6.48-.74,10.8-1.13v3.75c-.14,.01-.2,.02-.34,.03-.77-1.52-1.56-2.27-2.64-2.17-1.01,.1-1.52,.15-2.53,.26v6.05c.25-.03,.38-.04,.63-.07,1.17-.12,1.88-.98,2.36-2,.18-.02,.27-.03,.45-.04v4.86c-.18,.02-.27,.03-.45,.04-.48-.98-1.22-1.64-2.36-1.53-.25,.03-.38,.04-.63,.07,0,3.92,0,5.88,0,9.81,.27-.03,.41-.04,.68-.07,1.59-.16,4.97-1.47,4.97-4.91,0-.34,.17-.98-.65-.91-.51,.05-.99-.42-.99-.99,0-.6,.48-1.15,1.08-1.21h.03c.77-.04,1.22,.6,1.22,1.68,0,3.04-.4,6.14,.74,6.7v.4c-4.95,.42-7.42,.67-12.36,1.26v-.4Z"/><path class="cls-13" d="M137.77,64.01h.06c.6-.06,1.08,.41,1.08,1,0,.48-.36,.89-.74,1.09-.3,.16,0,.65,.17,.81,.6,.34,1.62,.53,3.3,.4,3.38-.28,6.71-1.57,9.83-2.66-2.13-5.13,.17-13.33-2.93-13.14-.43,.02-.71,.3-.71,.72,0,.2,.14,.42,.34,.41,.11,0,.26-.07,.31-.13,.06,.05,.08,.14,.08,.22,0,.37-.34,.59-.63,.61-.26,.02-.48-.03-.68-.16,0,2,0,3,0,5,0,1.53,.68,2.34,1.76,2.76v.4c-2.81,.16-4.21,.26-7.02,.48v-.4c1.31-.67,1.85-1.73,1.85-3.01v-13.36c0-1.36-.63-2.29-1.85-2.73v-.4c3.21-.26,4.81-.37,8.02-.54,3.01-.16,5.23,1.48,5.23,4.55,0,2.3-1.82,3.92-4.01,4.66,2.5,2.18,2.7,8.55,4.15,12.82,1.14-.29,2.22-.46,3.27-.48,2.98-.06,4.77,.97,4.77,2.65,0,2.05-2.1,3.12-4.86,3.18-3.13,.06-5.03-.93-6.22-2.5-3.07,1.67-6.48,3.66-10.97,4.03-1.56,.13-2.59-.74-2.36-1.93-.99-.11-2.5-1.3-2.5-2.69,0-1.28,.91-1.62,1.25-1.65Zm10.66-14.15c1.93-.11,3.13-1.67,3.13-3.78,0-2.22-1.48-3.54-3.13-3.44-.47,.03-.7,.04-1.17,.07v7.22c.47-.03,.7-.04,1.17-.07Zm11.4,17.67c1.68-.03,2.73-.88,2.73-1.96,0-1.02-1.11-1.82-3.3-1.78-1.17,.02-2.27,.3-3.41,.74,.82,1.82,2.02,3.03,3.98,3Z"/></g></g></g></g></svg>