<?xml version="1.0" encoding="UTF-8"?><svg id="Layer_2" xmlns="http://www.w3.org/2000/svg" xmlns:xlink="http://www.w3.org/1999/xlink" viewBox="0 0 163.44 80.27"><defs><style>.cls-1{fill:url(#linear-gradient);}.cls-2{fill:url(#linear-gradient-8);}.cls-3{fill:url(#linear-gradient-9);}.cls-4{fill:url(#linear-gradient-3);}.cls-5{fill:url(#linear-gradient-4);}.cls-6{fill:url(#linear-gradient-2);}.cls-7{fill:url(#linear-gradient-6);}.cls-8{fill:url(#linear-gradient-7);}.cls-9{fill:url(#linear-gradient-5);}.cls-10{fill:url(#linear-gradient-14);}.cls-11{fill:url(#linear-gradient-18);}.cls-12{fill:url(#linear-gradient-20);}.cls-13{fill:url(#linear-gradient-21);}.cls-14{fill:url(#linear-gradient-15);}.cls-15{fill:url(#linear-gradient-19);}.cls-16{fill:url(#linear-gradient-16);}.cls-17{fill:url(#linear-gradient-17);}.cls-18{fill:url(#linear-gradient-13);}.cls-19{fill:url(#linear-gradient-12);}.cls-20{fill:url(#linear-gradient-10);}.cls-21{fill:url(#linear-gradient-11);}</style><linearGradient id="linear-gradient" x1="13.98" y1="8.58" x2="24.77" y2="1.02" gradientTransform="matrix(1, 0, 0, 1, 0, 0)" gradientUnits="userSpaceOnUse"><stop offset="0" stop-color="#474737"/><stop offset="1" stop-color="#292919"/></linearGradient><linearGradient id="linear-gradient-2" x1="20.04" y1="12.01" x2="29.01" y2="5.73" xlink:href="#linear-gradient"/><linearGradient id="linear-gradient-3" x1="27.22" y1="11.61" x2="34.88" y2="6.24" xlink:href="#linear-gradient"/><linearGradient id="linear-gradient-4" x1="-4.24" y1="35.34" x2="16.14" y2="21.07" xlink:href="#linear-gradient"/><linearGradient id="linear-gradient-5" x1="16.89" y1="41.45" x2="37.51" y2="27.01" xlink:href="#linear-gradient"/><linearGradient id="linear-gradient-6" x1="30.64" y1="35.25" x2="48.03" y2="23.07" xlink:href="#linear-gradient"/><linearGradient id="linear-gradient-7" x1="42.02" y1="36.97" x2="65.56" y2="20.48" xlink:href="#linear-gradient"/><linearGradient id="linear-gradient-8" x1="65.04" y1="35.48" x2="82.7" y2="23.11" xlink:href="#linear-gradient"/><linearGradient id="linear-gradient-9" x1="76.28" y1="35.25" x2="93.68" y2="23.07" xlink:href="#linear-gradient"/><linearGradient id="linear-gradient-10" x1="86.52" y1="35.34" x2="106.9" y2="21.07" xlink:href="#linear-gradient"/><linearGradient id="linear-gradient-11" x1="104.11" y1="36.38" x2="121.34" y2="24.32" xlink:href="#linear-gradient"/><linearGradient id="linear-gradient-12" x1="119.38" y1="36.76" x2="139.81" y2="22.46" xlink:href="#linear-gradient"/><linearGradient id="linear-gradient-13" x1="135.12" y1="35.76" x2="155.27" y2="21.65" xlink:href="#linear-gradient"/><linearGradient id="linear-gradient-14" x1="37.13" y1="69.52" x2="63.06" y2="51.36" xlink:href="#linear-gradient"/><linearGradient id="linear-gradient-15" x1="58.71" y1="66.95" x2="77.84" y2="53.55" xlink:href="#linear-gradient"/><linearGradient id="linear-gradient-16" x1="80.48" y1="70.47" x2="94.84" y2="60.41" xlink:href="#linear-gradient"/><linearGradient id="linear-gradient-17" x1="87.72" y1="65.55" x2="101.85" y2="55.66" xlink:href="#linear-gradient"/><linearGradient id="linear-gradient-18" x1="96.97" y1="66.95" x2="116.1" y2="53.55" xlink:href="#linear-gradient"/><linearGradient id="linear-gradient-19" x1="112.57" y1="66.78" x2="129.16" y2="55.16" xlink:href="#linear-gradient"/><linearGradient id="linear-gradient-20" x1="125.92" y1="66.78" x2="142.52" y2="55.16" xlink:href="#linear-gradient"/><linearGradient id="linear-gradient-21" x1="136.67" y1="74.85" x2="159.03" y2="59.2" xlink:href="#linear-gradient"/></defs><g id="Favicon"><g id="flat-logo"><g><g><path class="cls-1" d="M11.78,1.04c.07-.7,.63-1.04,1.21-1.04,.41,0,.62,.29,.67,.52,.01,.04,.01,.08,.01,.12,0,.28-.22,.5-.5,.5s-.5-.22-.5-.5c0-.08,.03-.17,.05-.24,.03-.07,0-.1-.07-.08-.31,.13-.56,.5-.56,.93,0,.77,.45,1.38,1.95,1.38,2.26,0,5.69-1.25,8.83-1.25,2.06,0,3.12,.94,3.12,1.68,0,.12,0,.37-.21,.42,0-.5-.89-1.05-2.66-1.05-.67,0-1.63,.14-2.74,.33-.42,.09-.55,.28-.55,.66V11.95c0,.71,.33,1.1,.85,1.32v.18h-3.29v-.18c.55-.24,.85-.64,.85-1.32V3.82c0-.6-.33-.64-.7-.59-1.09,.14-2.2,.26-3.25,.26-2.3,0-2.89-.98-2.89-1.73,0-.41,.07-.62,.37-.72Z"/><path class="cls-6" d="M24.97,13.27c.59-.25,.73-.7,.73-1.32v-3.42h-2.35v3.42c0,.7,.21,1.1,.73,1.32v.18h-3.03v-.18c.6-.25,.72-.72,.72-1.32V5.78c0-.71-.21-1.11-.72-1.32v-.18h3.03v.18c-.56,.22-.73,.64-.73,1.32v2.2h2.35v-2.2c0-.71-.21-1.11-.73-1.32v-.18h3.03v.18c-.6,.24-.72,.71-.72,1.32v6.16c0,.68,.18,1.1,.72,1.32v.18h-3.03v-.18Z"/><path class="cls-4" d="M28.52,13.46v-.18c.6-.25,.85-.72,.85-1.32V5.78c0-.71-.31-1.11-.85-1.32v-.18h4.98v1.73h-.16c-.35-.73-.72-1.11-1.22-1.11h-1.17v3.06h.42c.54,0,.87-.37,1.09-.81h.21v2.24h-.21c-.22-.47-.56-.81-1.09-.81h-.42v4.26h1.39c.56,0,.88-.41,1.23-1.21h.17v1.84h-5.23Z"/></g><g><path class="cls-5" d="M0,40.91c1.47-.63,2.27-1.71,2.27-3.53V20.94c0-1.89-.87-2.94-2.27-3.53v-.49H10c3.6,0,5.98,2.48,5.98,6.19,0,3.92-2.87,6.51-6.82,6.51h-2.66v7.76c0,1.82,.98,2.94,2.66,3.53v.49H0v-.49ZM11.44,23.53c0-3.11-1.43-5.18-3.39-5.18h-1.54v9.79h1.54c1.96,0,3.39-1.85,3.39-4.62Z"/><path class="cls-9" d="M16.86,40.91c1.61-.7,2.27-1.96,2.27-3.53V20.94c0-1.68-.77-2.87-2.27-3.53v-.49h9.86c3.71,0,6.44,2.1,6.44,5.88,0,2.73-2.1,4.65-4.69,5.46,5.67,4.09,3.29,19.24,11.54,19.24,1.26,0,2.8-.63,3.57-1.85h.21c0,1.43-1.4,3.46-4.72,3.46-14.55,0-8.81-19.83-14.44-19.83-.52,0-.87,.31-.87,.84,0,.24,.18,.52,.42,.52,.14,0,.31-.07,.38-.14,.07,.07,.1,.17,.1,.28,0,.45-.42,.7-.77,.7-.21,0-.39-.03-.56-.1v6.02c0,1.89,.84,2.94,2.17,3.53v.49h-8.64v-.49Zm7.9-13.68c2.38,0,3.85-1.85,3.85-4.44,0-2.73-1.82-4.44-3.85-4.44h-1.43v8.88h1.43Z"/><path class="cls-7" d="M34.94,40.91c1.47-.63,2.27-1.71,2.27-3.53V20.94c0-1.89-.87-2.94-2.27-3.53v-.49h8.78v.49c-1.47,.63-2.27,1.71-2.27,3.53v16.44c0,1.89,.87,2.94,2.27,3.53v.49h-8.78v-.49Z"/><path class="cls-8" d="M59.53,41.54l-10.32-17.38v13.22c0,1.85,.28,2.94,2.13,3.53v.49h-6.23v-.49c1.57-.63,2.24-1.92,2.24-3.53V20.94c0-1.92-.8-2.94-2.13-3.53v-.49h5.39l8.46,14.45v-10.42c0-1.75-.63-2.9-2.41-3.53v-.49h6.4v.49c-1.43,.63-2.17,1.82-2.17,3.53v20.6h-1.36Z"/><path class="cls-2" d="M79.19,35.84l-.28,4.65c-1.36,.77-2.52,1.26-4.97,1.26-5.7,0-9.65-5.28-9.65-12.31,0-8.08,3.95-12.87,9.34-12.87,2.38,0,4.48,.45,5.32,1.19l.21,5-.45,.03-.52-1.15c-.87-1.92-2.62-3.74-4.55-3.74-2.76,0-4.58,4.58-4.58,11.02,0,7.1,2.31,11.51,4.9,11.51,2.41,0,3.92-2.03,4.79-4.58h.45Z"/><path class="cls-3" d="M80.59,40.91c1.47-.63,2.27-1.71,2.27-3.53V20.94c0-1.89-.87-2.94-2.27-3.53v-.49h8.78v.49c-1.47,.63-2.27,1.71-2.27,3.53v16.44c0,1.89,.87,2.94,2.27,3.53v.49h-8.78v-.49Z"/><path class="cls-20" d="M90.77,40.91c1.47-.63,2.27-1.71,2.27-3.53V20.94c0-1.89-.87-2.94-2.27-3.53v-.49h10c3.6,0,5.98,2.48,5.98,6.19,0,3.92-2.87,6.51-6.82,6.51h-2.66v7.76c0,1.82,.98,2.94,2.66,3.53v.49h-9.16v-.49Zm11.44-17.38c0-3.11-1.43-5.18-3.39-5.18h-1.54v9.79h1.54c1.96,0,3.39-1.85,3.39-4.62Z"/><path class="cls-21" d="M107.63,41.4v-.49c1.61-.7,2.27-1.96,2.27-3.53V20.94c0-1.68-.77-2.87-2.27-3.53v-.49h8.53v.49c-1.71,.66-2.06,1.92-2.06,3.53v18.78h3.29c1.47,0,2.31-1.26,3.39-4.23h.45v5.91h-13.61Z"/><path class="cls-19" d="M122.63,40.91c1.61-.66,2.27-1.92,2.27-3.53V20.94c0-1.89-.84-2.97-2.27-3.53v-.49h13.29v4.62h-.42c-.94-1.96-1.92-2.97-3.25-2.97h-3.11v7.45h.77c1.43,0,2.31-.98,2.9-2.17h.56v5.98h-.56c-.59-1.26-1.5-2.17-2.9-2.17h-.77v12.07h.84c1.96,0,6.12-1.22,6.12-5.46,0-.42,.21-1.19-.8-1.19-.63,0-1.22-.63-1.22-1.33,0-.73,.59-1.36,1.33-1.36h.04c.94,.04,1.5,.87,1.5,2.2,0,3.74-.49,7.52,.91,8.32v.49h-15.21v-.49Z"/><path class="cls-18" d="M139.07,40.91c1.61-.63,2.27-1.92,2.27-3.53V20.94c0-1.89-.87-2.94-2.27-3.53v-.49h8.15c5.49,0,9.13,3.74,9.13,10.95,0,8.6-3.22,13.54-8.92,13.54h-8.36v-.49Zm12.91-12.94c0-7.35-2.17-9.62-5.42-9.62h-.98v21.62h1.78c3.43,0,4.62-5.18,4.62-12Z"/></g><g><path class="cls-10" d="M46.72,56.08c-2.42-.37-4.66-3.21-4.66-6.39,0-3.81,3.07-6.91,7.65-6.91,2.39,0,4.32,.91,5.26,2.7,.68-.77,1.56-1.22,2.56-1.22,.54,0,1.02,.26,.85,.85-1.93,0-2.93,3.01-2.93,5.09,0,1.65,.63,4.58,2.22,4.58,.26,0,.43-.11,.28-.2-.34-.26-.54-.63-.54-1.05,0-.54,.45-1.14,1.19-1.14s1.25,.65,1.25,1.36-.45,1.96-2.42,1.96-3.41-1.22-3.87-3.52c-.65,.43-1.45,.63-2.3,.63-2.19,0-3.64-1.48-3.64-3.27,0-1.17,.85-2.59,2.27-2.19-.06,.09-.09,.17-.09,.31,0,.77,.45,1.82,1.53,1.82,1.28,0,1.79-1.11,1.79-2.22,0-2.16-1.53-3.41-3.44-3.41-2.81,0-4.12,2.7-4.12,5.68,0,3.44,2.59,5.57,4.38,5.57,.57,0,1.25-.11,1.59-.31,.63,1.53-1.73,1.71-2.13,1.71-3.33,0-7.93,3.21-7.93,9.49,0,6.96,4.24,10.26,8.33,10.26,5.29,0,8.73-3.01,8.73-7.82,0-4.35-2.98-6.14-5.97-6.14-2.79,0-4.52,1.85-4.52,4.26,0,1.42,.85,2.98,2.67,2.98,.99,0,2.1-.82,2.27-1.65,1.02,.17,1.56,1.34,1.56,2.19,0,1.76-1.82,3.41-4.15,3.41-3.01,0-5.23-2.13-5.23-5.6,0-2.42,1.45-4.21,2.47-4.49-.31-.2-.54-.74-.54-1.36,0-1.82,2.42-3.04,5.4-3.04,3.47,0,7.79,2.81,7.79,9.44,0,5.06-4.18,9.44-10.49,9.44s-12.25-4.06-12.25-11.62c0-6,5.14-9.98,9.15-10.17Z"/><path class="cls-14" d="M72.95,70.66l-8.38-14.13v10.74c0,1.51,.23,2.39,1.73,2.87v.4h-5.06v-.4c1.28-.51,1.82-1.56,1.82-2.87v-13.36c0-1.56-.65-2.39-1.73-2.87v-.4h4.38l6.88,11.74v-8.47c0-1.42-.51-2.36-1.96-2.87v-.4h5.2v.4c-1.17,.51-1.76,1.48-1.76,2.87v16.74h-1.11Z"/><path class="cls-16" d="M84.31,50.43c2.07,0,3.87,.88,4.55,1.45l-.4,3.58-.37,.03c-.82-2.3-1.88-3.98-3.78-3.98-2.36,0-3.92,3.95-3.92,9.18,0,5.66,1.62,8.92,4.09,8.92,.74,0,1.31-.48,1.31-1.14v-5.2c0-1.34-.37-2.36-1.68-2.87v-.4h6.08v.4c-.88,.68-1.19,1.19-1.19,2.87v7.99c0,4.01,1.16,7.53,3.15,7.9,.31,.06,.28-.11,.23-.23-.03-.06-.06-.17-.06-.26,0-.6,.48-1.11,1.08-1.11s1.08,.51,1.08,1.14-.51,1.56-1.62,1.56c-1.85,0-3.27-1.59-3.84-2.84-1.08,0-1.71-1.05-1.88-2.9-.28,.14-.65,.23-1.08,.23-1.25,0-1.73-.65-1.85-1.22v-.34c.99-.23,1.56-.85,1.56-2.47-.6,.11-1.22,.17-1.9,.17-4.23,0-7.08-4.32-7.08-10.03,0-6.57,3.01-10.43,7.5-10.43Z"/><path class="cls-17" d="M91.22,70.15c1.19-.51,1.85-1.39,1.85-2.87v-13.36c0-1.53-.71-2.39-1.85-2.87v-.4h7.13v.4c-1.19,.51-1.85,1.39-1.85,2.87v13.36c0,1.53,.71,2.39,1.85,2.87v.4h-7.13v-.4Z"/><path class="cls-11" d="M111.2,70.66l-8.38-14.13v10.74c0,1.51,.23,2.39,1.73,2.87v.4h-5.06v-.4c1.28-.51,1.82-1.56,1.82-2.87v-13.36c0-1.56-.65-2.39-1.73-2.87v-.4h4.38l6.88,11.74v-8.47c0-1.42-.51-2.36-1.96-2.87v-.4h5.2v.4c-1.17,.51-1.76,1.48-1.76,2.87v16.74h-1.11Z"/><path class="cls-15" d="M115.21,70.15c1.31-.54,1.85-1.56,1.85-2.87v-13.36c0-1.53-.68-2.42-1.85-2.87v-.4h10.8v3.75h-.34c-.77-1.59-1.56-2.42-2.64-2.42h-2.53v6.05h.63c1.17,0,1.88-.8,2.36-1.76h.45v4.86h-.45c-.48-1.02-1.22-1.76-2.36-1.76h-.63v9.81h.68c1.59,0,4.97-.99,4.97-4.43,0-.34,.17-.97-.65-.97-.51,0-.99-.51-.99-1.08,0-.6,.48-1.11,1.08-1.11h.03c.77,.03,1.22,.71,1.22,1.79,0,3.04-.4,6.11,.74,6.76v.4h-12.36v-.4Z"/><path class="cls-12" d="M128.56,70.15c1.31-.54,1.85-1.56,1.85-2.87v-13.36c0-1.53-.68-2.42-1.85-2.87v-.4h10.8v3.75h-.34c-.77-1.59-1.56-2.42-2.64-2.42h-2.53v6.05h.63c1.16,0,1.88-.8,2.36-1.76h.45v4.86h-.45c-.48-1.02-1.22-1.76-2.36-1.76h-.63v9.81h.68c1.59,0,4.97-.99,4.97-4.43,0-.34,.17-.97-.65-.97-.51,0-.99-.51-.99-1.08,0-.6,.48-1.11,1.08-1.11h.03c.77,.03,1.22,.71,1.22,1.79,0,3.04-.4,6.11,.74,6.76v.4h-12.36v-.4Z"/><path class="cls-13" d="M137.77,72.37h.06c.6,0,1.08,.51,1.08,1.11,0,.48-.31,.88-.74,1.02-.31,.17,0,.65,.17,.82,.6,.4,1.62,.68,3.3,.68,3.38,0,6.71-1.08,9.83-2.02-2.13-5.23,.17-13.3-2.93-13.3-.43,0-.71,.26-.71,.68,0,.2,.14,.43,.34,.43,.11,0,.26-.06,.31-.11,.06,.06,.09,.14,.09,.23,0,.37-.34,.57-.63,.57-.26,0-.48-.06-.68-.2v5c0,1.53,.68,2.39,1.76,2.87v.4h-7.02v-.4c1.31-.57,1.85-1.59,1.85-2.87v-13.36c0-1.36-.63-2.33-1.85-2.87v-.4h8.01c3.01,0,5.23,1.71,5.23,4.77,0,2.3-1.82,3.87-4.01,4.49,2.5,2.3,2.7,8.67,4.15,12.99,1.14-.26,2.22-.4,3.27-.4,2.98,0,4.77,1.02,4.77,2.7,0,2.05-2.1,3.13-4.86,3.13-3.13,0-5.03-1.08-6.22-2.7-3.07,1.53-6.48,3.33-10.97,3.33-1.56,0-2.59-.97-2.36-2.13-.99-.2-2.5-1.53-2.5-2.93,0-1.28,.91-1.53,1.25-1.53Zm10.66-13.33c1.93,0,3.13-1.51,3.13-3.61,0-2.22-1.48-3.61-3.13-3.61h-1.17v7.22h1.17Zm11.4,18.1c1.68,0,2.73-.85,2.73-1.93,0-1.02-1.11-1.82-3.3-1.82-1.17,0-2.27,.26-3.41,.65,.82,1.85,2.02,3.1,3.98,3.1Z"/></g></g></g></g></svg>