<svg width="1608" height="765" viewBox="0 0 1608 765" fill="none" xmlns="http://www.w3.org/2000/svg">
<path fill-rule="evenodd" clip-rule="evenodd" d="M1366.23 216.559C1366.23 233.611 1358.95 246.227 1344.39 254.407V259.119L1424.72 244.955C1452.06 240.134 1473.18 225.077 1488.08 199.788C1502.98 174.494 1510.43 141.093 1510.43 99.5821C1510.43 65.6975 1502.59 41.0518 1486.9 25.642C1471.22 10.2315 1449.82 4.91714 1422.7 9.69814L1344.39 23.507V28.2193C1358.95 31.9311 1366.23 41.9806 1366.23 58.3625V216.559ZM1457.83 194.182C1450.77 216.181 1439.51 228.547 1424.05 231.273L1406.9 234.296V26.2838L1416.32 24.6243C1433.12 21.6611 1446.01 26.4571 1454.97 39.0139C1463.93 51.57 1468.41 74.5631 1468.41 108C1468.41 143.453 1464.88 172.18 1457.83 194.182Z" fill="#A16207"/>
<path d="M1186.41 282.262C1200.98 273.635 1208.26 261.018 1208.26 244.414V86.2174C1208.26 69.1623 1200.98 59.1128 1186.41 56.0742V51.362L1314.14 28.841V73.2707L1310.1 73.9819C1305.4 65.1615 1300.58 58.8315 1295.65 54.9887C1290.72 51.1452 1285.12 49.777 1278.84 50.8836L1248.93 56.1582V127.852L1256.33 126.548C1267.98 124.493 1277.28 115.896 1284.22 100.76L1289.6 99.812V157.369L1284.22 158.317C1277.73 145.548 1268.43 140.234 1256.33 142.367L1248.93 143.671V259.794L1257 258.372C1264.62 257.029 1272.96 253.874 1282.04 248.908C1291.11 243.942 1299.01 236.938 1305.73 227.9C1312.46 218.859 1315.82 208.057 1315.82 195.493C1315.82 194.82 1315.87 193.406 1315.99 191.256C1316.1 189.101 1315.54 187.464 1314.3 186.335C1313.07 185.205 1311 184.898 1308.09 185.412C1304.95 185.965 1302.2 185.156 1299.85 182.993C1297.5 180.826 1296.32 178.062 1296.32 174.696C1296.32 171.104 1297.56 167.8 1300.02 164.788C1302.49 161.771 1305.51 159.948 1309.09 159.317L1309.43 159.257C1313.91 158.689 1317.44 160.032 1320.02 163.281C1322.6 166.529 1323.88 171.404 1323.88 177.914L1323.55 200.525C1323.33 205.276 1323.21 212.028 1323.21 220.779C1323.21 231.325 1323.83 239.519 1325.06 245.361C1326.29 251.202 1328.81 254.908 1332.62 256.481V261.194L1186.41 286.974V282.262Z" fill="#A16207"/>
<path d="M1042.22 307.687V312.399L1172.97 289.345V232.461L1168.6 233.232C1163.22 248.99 1158.18 260.367 1153.47 267.37C1148.77 274.369 1142.94 278.483 1136 279.708L1104.4 285.279V104.531C1104.4 95.7792 1105.8 88.4064 1108.6 82.4164C1111.41 76.4219 1116.62 71.2958 1124.23 67.0384V62.3261L1042.22 76.787V81.4992C1056.79 85.4367 1064.07 95.4862 1064.07 111.642V269.839C1064.07 286.217 1056.79 298.834 1042.22 307.687Z" fill="#A16207"/>
<path fill-rule="evenodd" clip-rule="evenodd" d="M880.214 336.253C894.781 327.4 902.061 314.783 902.061 298.405V140.209C902.061 123.827 894.781 113.777 880.214 110.065V105.353L976.343 88.4031C993.599 85.3604 1007.49 88.3499 1018.02 97.3787C1028.55 106.403 1033.82 119.891 1033.82 137.845C1033.82 150.184 1031.02 161.617 1025.41 172.144C1019.82 182.667 1012.03 191.388 1002.06 198.31C992.086 205.227 980.827 209.794 968.276 212.007L942.731 216.511V291.234C942.731 307.838 951.249 317.669 968.276 320.726V325.438L880.214 340.965V336.253ZM957.52 199.767C966.931 198.108 974.719 192.638 980.88 183.363C987.045 174.083 990.123 162.826 990.123 149.588C990.123 134.779 987.045 123.315 980.88 115.203C974.719 107.087 966.931 103.863 957.52 105.522L942.731 108.13V202.375L957.52 199.767Z" fill="#A16207"/>
<path d="M804.253 315.652C804.253 332.03 796.973 344.647 782.405 353.499V358.212L866.77 343.336V338.624C852.206 334.907 844.923 324.859 844.923 308.481V150.284C844.923 133.902 852.206 121.284 866.77 112.436V107.724L782.405 122.599V127.312C796.973 131.023 804.253 141.073 804.253 157.455V315.652Z" fill="#A16207"/>
<path d="M768.961 307.065L766.272 352.305C758.877 357.87 751.819 362.201 745.097 365.295C738.374 368.385 729.525 370.902 718.544 372.838C700.619 375.999 684.596 373.66 670.48 365.83C656.363 357.996 645.386 345.794 637.54 329.228C629.699 312.656 625.776 293.153 625.776 270.716C625.776 245.357 629.642 222.629 637.372 202.532C645.103 182.43 655.748 166.249 669.303 153.986C682.862 141.72 698.266 134.069 715.519 131.027C726.947 129.012 737.313 128.194 746.609 128.575C755.91 128.954 762.575 130.583 766.608 133.463L768.625 181.24L764.255 182.347L759.213 172.128C754.733 162.821 748.515 155.387 740.559 149.837C732.607 144.281 724.258 142.277 715.519 143.818C706.78 145.359 699.106 151.198 692.495 161.341C685.887 171.479 680.731 184.957 677.034 201.765C673.337 218.573 671.488 237.186 671.488 257.607C671.488 279.596 673.619 298.632 677.874 314.711C682.133 330.789 687.904 342.73 695.184 350.535C702.468 358.338 710.255 361.509 718.544 360.047C729.525 358.111 738.825 352.486 746.441 343.18C754.061 333.869 760.111 322.089 764.591 307.835L768.961 307.065Z" fill="#A16207"/>
<path d="M480.911 245.435L580.065 395.236L593.173 392.925V194.674C593.173 178.066 600.121 165.512 614.012 157.004V152.292L552.504 163.137V167.849C560.796 169.302 566.735 172.462 570.318 177.331C573.904 182.194 575.695 189.004 575.695 197.756V298.059L494.356 173.39L442.595 182.517V187.229C449.317 188.959 454.416 192.213 457.888 196.987C461.363 201.759 463.097 208.633 463.097 217.61V375.806C463.097 392.636 455.928 405.229 441.586 413.595V418.307L501.414 407.758V403.046C493.126 401.814 487.634 398.912 484.945 394.337C482.256 389.763 480.911 382.537 480.911 372.665V245.435Z" fill="#A16207"/>
<path d="M343.777 430.841C358.345 421.988 365.625 409.372 365.625 392.994V234.797C365.625 218.415 358.345 208.365 343.777 204.653V199.941L428.142 185.066V189.778C413.578 198.626 406.294 211.244 406.294 227.626V385.822C406.294 402.2 413.578 412.249 428.142 415.966V420.678L343.777 435.554V430.841Z" fill="#A16207"/>
<path fill-rule="evenodd" clip-rule="evenodd" d="M191.854 423.634C191.854 440.012 184.574 452.629 170.007 461.482V466.194L253.027 451.555V446.843C239.135 443.008 232.188 432.9 232.188 416.522V358.629C233.983 358.985 235.774 359.006 237.565 358.69C239.361 358.374 241.041 357.458 242.607 355.95C244.177 354.438 244.96 352.674 244.96 350.655C244.96 349.53 244.624 348.694 243.952 348.14C243.058 349.192 241.824 349.861 240.254 350.138C239.135 350.335 238.184 349.998 237.397 349.127C236.614 348.255 236.221 347.147 236.221 345.8C236.221 343.329 237.008 341.229 238.574 339.495C240.144 337.757 242.16 336.675 244.624 336.241C251.125 335.094 256.334 336.811 260.253 341.394C264.176 345.974 267.143 352.182 269.16 360.019C271.177 367.853 273.419 378.959 275.882 393.334C280.366 418.572 285.462 439.273 291.176 455.431C296.89 471.59 307.087 484.655 321.762 494.636C336.44 504.613 357 507.271 383.439 502.61C393.301 500.871 401.646 497.659 408.479 492.977C410.527 491.574 412.418 490.123 414.153 488.625C413.291 493.056 412.86 497.557 412.86 502.127C412.86 512.042 414.971 521.17 419.193 529.514C423.414 537.857 429.012 544.444 435.987 549.272C442.961 554.101 450.303 556.387 458.012 556.129C444.613 559.226 431.031 566.257 417.265 577.221C403.5 588.185 392.074 601.858 382.989 618.239C373.903 634.621 369.361 651.991 369.361 670.35C369.361 693.85 374.821 713.129 385.742 728.186C396.663 743.242 411.163 753.583 429.242 759.208C447.321 764.833 466.914 765.784 488.021 762.062C507.844 758.567 525.464 751.283 540.881 740.211C556.299 729.139 568.275 715.874 576.81 700.416C585.345 684.958 589.612 669.059 589.612 652.719C589.612 632.524 585.849 616.205 578.324 603.762C570.799 591.32 561.209 582.821 549.554 578.267C537.899 573.713 526.106 572.487 514.176 574.591C504.632 576.274 495.868 579.058 487.884 582.945C479.899 586.831 473.567 591.436 468.887 596.759C464.206 602.083 461.866 607.59 461.866 613.281C461.866 616.219 462.371 618.838 463.38 621.138C464.39 623.439 465.629 624.919 467.097 625.578C463.61 627.111 459.985 630.228 456.222 634.931C452.46 639.634 449.339 645.37 446.862 652.141C444.384 658.912 443.145 665.969 443.145 673.313C443.145 684.329 445.302 693.541 449.615 700.951C453.928 708.36 459.939 713.588 467.648 716.635C475.357 719.682 484.075 720.348 493.803 718.633C501.144 717.338 507.89 714.588 514.038 710.383C520.187 706.178 525.051 701.235 528.63 695.555C532.209 689.875 533.999 684.19 533.999 678.498C533.999 673.908 532.622 669.653 529.869 665.732C527.116 661.811 523.445 659.888 518.856 659.963C517.939 664.164 515.231 668.313 510.735 672.411C506.238 676.508 501.603 678.978 496.831 679.819C488.572 681.276 482.194 679.509 477.697 674.518C473.2 669.528 470.952 663.177 470.952 655.467C470.952 643.533 474.944 632.961 482.928 623.75C490.912 614.54 501.512 608.769 514.727 606.439C524.822 604.659 534.274 605.104 543.084 607.773C551.894 610.442 559.006 615.752 564.421 623.701C569.835 631.651 572.543 642.327 572.543 655.729C572.543 671.151 569.055 685.168 562.081 697.781C555.106 710.394 545.241 720.9 532.484 729.299C519.728 737.699 504.907 743.388 488.021 746.365C474.255 748.792 461.224 747.372 448.927 742.105C436.629 736.838 426.626 727.402 418.917 713.799C411.208 700.195 407.354 682.653 407.354 661.173C407.354 642.079 411.346 624.852 419.33 609.491C427.314 594.13 437.271 581.817 449.202 572.554C461.132 563.29 472.787 557.655 484.167 555.648C488.205 554.936 492.839 553.247 498.07 550.58C503.301 547.914 505.917 544.377 505.917 539.971C505.917 538.319 505.549 536.823 504.815 535.484C503.163 536.693 500.915 537.824 498.07 538.876C495.225 539.929 492.334 540.714 489.398 541.231C483.341 542.3 477.009 541.167 470.401 537.834C463.793 534.501 458.241 529.1 453.744 521.631C449.248 514.163 446.999 505.196 446.999 494.731C446.999 479.125 450.441 465.437 457.324 453.667C464.206 441.897 474.072 434.879 486.92 432.614C496.464 430.931 504.402 432.514 510.735 437.365C517.067 442.215 520.233 449.689 520.233 459.787C520.233 465.662 518.81 470.961 515.966 475.686C513.121 480.41 508.762 483.29 502.888 484.325C498.116 485.167 494.445 483.978 491.876 480.759C489.306 477.541 488.021 473.728 488.021 469.322C488.021 468.037 488.297 466.978 488.847 466.147C487.746 465.974 486.186 466.065 484.167 466.421C479.028 467.328 474.852 470.313 471.64 475.377C468.428 480.442 466.822 485.728 466.822 491.236C466.822 500.048 470.08 506.955 476.596 511.957C483.111 516.958 491.6 518.536 502.062 516.692C510.689 515.171 518.122 511.84 524.363 506.701C526.565 517.328 530.97 524.997 537.578 529.707C544.185 534.417 552.261 535.93 561.805 534.247C570.248 532.759 576.259 529.725 579.838 525.147C583.417 520.568 585.207 515.892 585.207 511.119C585.207 507.631 584.06 504.758 581.766 502.5C579.471 500.243 576.581 499.421 573.093 500.036C569.606 500.651 566.807 502.292 564.696 504.959C562.585 507.626 561.53 510.337 561.53 513.091C561.53 517.313 563.274 520.402 566.761 522.358C567.495 522.596 567.541 523.001 566.899 523.573C566.256 524.145 565.293 524.545 564.008 524.771C559.236 525.613 555.244 523.884 552.032 519.585C548.82 515.286 546.434 509.832 544.874 503.222C543.313 496.612 542.533 490.278 542.533 484.22C542.533 477.059 543.635 469.43 545.837 461.33C548.04 453.231 551.297 446.231 555.611 440.33C559.924 434.429 565.017 430.96 570.891 429.924C571.074 429.341 571.166 428.591 571.166 427.673C571.166 425.653 570.34 424.284 568.688 423.566C567.036 422.847 565.017 422.698 562.631 423.119C553.087 424.802 544.828 430.206 537.853 439.33C533.448 431.478 526.794 426.133 517.893 423.297C508.991 420.46 498.667 420.078 486.92 422.149C472.42 424.705 459.572 429.954 448.376 437.895C437.18 445.836 428.462 455.452 422.221 466.742C421.581 467.9 420.973 469.063 420.399 470.232C417.899 472.872 415.046 475.263 411.84 477.406C405.454 481.673 399.015 484.38 392.514 485.526C378.397 488.016 366.969 485.708 358.23 478.613C349.491 471.513 342.826 462.086 338.231 450.332C333.64 438.573 328.652 422.401 323.274 401.807C317.224 379.087 311.342 361.164 305.628 348.035C299.915 334.906 291.905 325.547 281.596 319.96C294.819 313.59 305.629 305.063 314.031 294.382C322.434 283.698 326.636 272.075 326.636 259.511C326.636 241.782 320.922 228.933 309.494 220.965C298.066 212.993 283.166 210.629 264.791 213.869L170.007 230.582V235.294C184.574 239.231 191.854 249.281 191.854 265.437V423.634ZM272.857 299.791C266.135 308.94 257.175 314.505 245.968 316.481L232.188 318.911V233.418L245.968 230.988C256.052 229.21 264.737 231.603 272.017 238.175C279.301 244.743 282.941 254.425 282.941 267.215C282.941 279.78 279.58 290.639 272.857 299.791Z" fill="#A16207"/>
<path fill-rule="evenodd" clip-rule="evenodd" d="M29.8474 452.2C29.8474 468.578 22.5675 481.195 8 490.048V494.76L96.0617 479.233V474.52C79.0345 471.464 70.517 461.633 70.517 445.029V370.306L96.0617 365.802C108.612 363.589 119.872 359.022 129.841 352.104C139.814 345.182 147.602 336.461 153.201 325.939C158.804 315.412 161.604 303.979 161.604 291.64C161.604 273.686 156.341 260.198 145.806 251.174C135.276 242.145 121.385 239.155 104.128 242.198L8 259.148V263.86C22.5675 267.572 29.8474 277.621 29.8474 294.003V452.2ZM108.666 337.157C102.505 346.433 94.7172 351.902 85.3061 353.562L70.517 356.169V261.925L85.3061 259.317C94.7172 257.657 102.505 260.882 108.666 268.998C114.831 277.11 117.909 288.573 117.909 303.383C117.909 316.621 114.831 327.878 108.666 337.157Z" fill="#A16207"/>
<path fill-rule="evenodd" clip-rule="evenodd" d="M1351.41 559.841C1348.65 562.621 1347.28 566.673 1347.28 571.997C1347.28 576.22 1348.56 580.17 1351.13 583.848C1353.7 587.526 1356.91 590.448 1360.77 592.614C1364.62 594.78 1368.2 595.939 1371.51 596.091C1371.32 596.858 1371.23 597.883 1371.23 599.169C1371.23 604.126 1373.39 607.922 1377.7 610.558C1382.01 613.194 1387.57 613.913 1394.36 612.716C1407.75 610.353 1420.56 606.581 1432.76 601.4C1444.97 596.218 1455.71 590.745 1464.97 584.98C1474.24 579.215 1486.13 571.474 1500.63 561.757C1513.48 576.933 1533.57 582.109 1560.92 577.287C1574.87 574.828 1586.2 570.167 1594.92 563.306C1603.64 556.444 1608 548.24 1608 538.693C1608 530.615 1603.92 524.955 1595.75 521.714C1587.58 518.472 1576.25 518.13 1561.75 520.687C1552.02 522.402 1541.47 525.548 1530.09 530.125C1527.88 523.904 1525.96 517.267 1524.3 510.214C1522.65 503.162 1520.73 494.322 1518.52 483.695C1514.12 463.175 1509.99 447.288 1506.13 436.034C1502.28 424.78 1496.86 416.555 1489.89 411.359C1501.27 406.048 1510.58 398.989 1517.83 390.183C1525.08 381.378 1528.71 371.651 1528.71 361.002C1528.71 346.498 1524.03 335.987 1514.67 329.467C1505.31 322.948 1493.1 321.015 1478.05 323.669L1400.41 337.359V341.214C1412.34 344.435 1418.31 352.654 1418.31 365.873V495.307C1418.31 508.709 1412.34 519.033 1400.41 526.277V530.132L1468.42 518.142V514.286C1457.04 511.152 1451.35 502.884 1451.35 489.481V441.013C1453.18 441.974 1455.38 442.228 1457.95 441.775C1459.42 441.516 1460.8 440.769 1462.08 439.532C1463.37 438.296 1464.01 436.852 1464.01 435.199C1464.01 434.281 1463.74 433.596 1463.18 433.142C1462.45 434.006 1461.44 434.551 1460.16 434.777C1459.24 434.939 1458.46 434.664 1457.82 433.951C1457.17 433.238 1456.85 432.331 1456.85 431.229C1456.85 429.21 1457.49 427.49 1458.78 426.07C1460.06 424.65 1461.72 423.762 1463.74 423.406C1468.87 422.5 1472.68 424.077 1475.16 428.139C1477.64 432.2 1479.24 437.654 1479.98 444.501C1480.71 451.348 1481.26 461.257 1481.63 474.227C1482 490.686 1482.82 504.631 1484.11 516.063C1485.39 527.495 1488.05 537.903 1492.09 547.289L1485.76 550.333C1466.49 559.606 1450.24 566.877 1437.03 572.144C1423.81 577.412 1410.42 581.243 1396.83 583.638C1382.15 586.227 1371.51 585.901 1364.9 582.66C1364.16 582.055 1363.48 581.259 1362.83 580.27C1362.19 579.282 1361.87 578.329 1361.87 577.411C1361.87 576.493 1362.33 575.678 1363.25 574.965C1365.26 573.875 1366.96 572.336 1368.34 570.349C1369.72 568.362 1370.4 566.176 1370.4 563.789C1370.4 560.852 1369.39 558.505 1367.38 556.75C1365.36 554.994 1362.88 554.375 1359.94 554.893L1359.39 554.99C1356.82 555.443 1354.16 557.06 1351.41 559.841ZM1484.66 393.968C1479.15 401.456 1471.81 406.009 1462.63 407.628L1451.35 409.618V339.669L1462.63 337.678C1470.89 336.222 1478.01 338.181 1483.97 343.555C1489.94 348.929 1492.92 356.848 1492.92 367.313C1492.92 377.594 1490.17 386.479 1484.66 393.968ZM1550.18 559.766C1543.94 555.633 1538.71 549.166 1534.49 540.364C1546.61 534.005 1557.62 529.952 1567.53 528.204C1577.81 526.392 1585.7 526.653 1591.21 528.986C1596.71 531.32 1599.47 535.057 1599.47 540.198C1599.47 545.522 1597.03 550.403 1592.17 554.841C1587.31 559.279 1580.93 562.193 1573.04 563.585C1564.04 565.171 1556.42 563.898 1550.18 559.766Z" fill="#A16207"/>
<path d="M1267.44 549.724C1279.37 542.664 1285.33 532.34 1285.33 518.754V389.321C1285.33 375.368 1279.37 367.148 1267.44 364.662V360.806L1372.06 342.359V378.711L1368.75 379.293C1364.9 372.078 1360.95 366.899 1356.91 363.756C1352.88 360.612 1348.29 359.493 1343.15 360.4L1318.64 364.72V423.378L1324.7 422.31C1334.25 420.628 1341.86 413.593 1347.55 401.207L1351.96 400.43V447.522L1347.55 448.299C1342.23 437.855 1334.61 433.506 1324.7 435.254L1318.64 436.322V531.332L1325.25 530.167C1331.49 529.066 1338.33 526.484 1345.76 522.419C1353.2 518.354 1359.67 512.624 1365.17 505.227C1370.68 497.83 1373.43 488.991 1373.43 478.71C1373.43 478.159 1373.48 477.004 1373.57 475.243C1373.66 473.483 1373.2 472.141 1372.19 471.218C1371.18 470.294 1369.49 470.043 1367.1 470.463C1364.53 470.916 1362.28 470.257 1360.35 468.486C1358.43 466.714 1357.46 464.452 1357.46 461.698C1357.46 458.76 1358.47 456.058 1360.49 453.59C1362.51 451.123 1364.99 449.63 1367.93 449.113L1368.2 449.064C1371.87 448.601 1374.76 449.697 1376.87 452.354C1378.98 455.011 1380.04 459.002 1380.04 464.326L1379.76 482.826C1379.58 486.714 1379.49 492.238 1379.49 499.398C1379.49 508.027 1379.99 514.731 1381 519.51C1382.01 524.289 1384.08 527.321 1387.2 528.607V532.463L1267.44 553.58V549.724Z" fill="#A16207"/>
<path d="M1153.18 542.056C1153.18 555.642 1147.22 565.965 1135.29 573.026V576.882L1255.05 555.764V551.909C1251.93 550.623 1249.86 547.591 1248.85 542.812C1247.84 538.033 1247.34 531.329 1247.34 522.7C1247.34 515.54 1247.43 510.016 1247.61 506.128L1247.89 487.628C1247.89 482.304 1246.83 478.313 1244.72 475.656C1242.61 472.999 1239.72 471.902 1236.05 472.366L1235.77 472.414C1232.84 472.932 1230.36 474.425 1228.34 476.892C1226.32 479.359 1225.31 482.062 1225.31 484.999C1225.31 487.753 1226.28 490.016 1228.2 491.787C1230.13 493.559 1232.38 494.218 1234.95 493.765C1237.33 493.344 1239.03 493.596 1240.04 494.519C1241.05 495.443 1241.51 496.785 1241.42 498.545C1241.33 500.306 1241.28 501.461 1241.28 502.012C1241.28 512.293 1238.53 521.132 1233.02 528.529C1227.52 535.925 1221.05 541.656 1213.61 545.721C1206.18 549.785 1199.34 552.368 1193.1 553.468L1186.49 554.633V459.623L1192.55 458.555C1202.46 456.808 1210.08 461.156 1215.4 471.601L1219.81 470.824V423.732L1215.4 424.509C1209.71 436.895 1202.09 443.929 1192.55 445.612L1186.49 446.68V388.022L1211 383.701C1216.14 382.795 1220.72 383.914 1224.76 387.057C1228.8 390.201 1232.75 395.38 1236.6 402.595L1239.9 402.012V365.661L1135.29 384.108V387.963C1147.22 390.45 1153.18 398.669 1153.18 412.622V542.056Z" fill="#A16207"/>
<path d="M1093.71 585.313L1012.5 462.765V566.863C1012.5 574.941 1013.6 580.851 1015.8 584.594C1018 588.336 1022.5 590.71 1029.29 591.716V595.571L980.283 604.212V600.357C992.03 593.512 997.903 583.205 997.903 569.436V440.002C997.903 432.658 996.481 427.034 993.636 423.129C990.791 419.225 986.615 416.564 981.109 415.149V411.293L1023.51 403.817L1090.13 505.806V423.739C1090.13 416.579 1088.67 411.009 1085.73 407.028C1082.79 403.048 1077.93 400.464 1071.14 399.274V395.419L1121.52 386.535V390.39C1110.14 397.354 1104.45 407.629 1104.45 421.215V583.42L1093.71 585.313Z" fill="#A16207"/>
<path d="M915.309 583.999C915.309 597.402 909.344 607.725 897.414 614.969V618.825L966.518 606.64V602.784C954.587 599.747 948.622 591.528 948.622 578.125V448.692C948.622 435.289 954.587 424.966 966.518 417.722V413.866L897.414 426.051V429.907C909.344 432.944 915.309 441.163 915.309 454.566V583.999Z" fill="#A16207"/>
<path d="M633.662 529.563L714.88 652.112L725.618 650.218V488.013C725.618 474.427 731.307 464.152 742.687 457.189V453.333L692.304 462.217V466.073C699.095 467.262 703.959 469.847 706.896 473.827C709.833 477.807 711.301 483.377 711.301 490.537V572.604L644.675 470.615L602.277 478.091V481.947C607.783 483.363 611.959 486.023 614.804 489.927C617.649 493.832 619.071 499.456 619.071 506.8V636.234C619.071 650.003 613.198 660.311 601.451 667.155V671.011L650.457 662.37V658.514C643.666 657.509 639.169 655.134 636.966 651.392C634.764 647.649 633.662 641.739 633.662 633.661V529.563Z" fill="#A16207"/>
<path d="M755.076 550.014C755.076 529.084 758.105 510.512 764.162 494.298C770.219 478.083 778.707 464.974 789.628 454.97C800.549 444.967 813.259 438.686 827.759 436.13C836.753 434.544 845.333 434.5 853.501 435.997C861.669 437.494 867.772 439.631 871.81 442.407L867.955 477.786L864.376 478.693C859.971 466.985 854.924 458.328 849.234 452.722C843.544 447.116 836.386 445.074 827.759 446.595C820.234 447.922 813.626 452.942 807.937 461.656C802.247 470.37 797.796 481.758 794.584 495.818C791.372 509.879 789.766 525.354 789.766 542.245C789.766 569.417 793.345 589.991 800.503 603.967C807.661 617.943 817.297 623.863 829.411 621.728C833.082 621.08 836.111 619.49 838.497 616.958C840.883 614.426 842.076 611.6 842.076 608.479V558.082C842.076 551.105 840.883 545.533 838.497 541.364C836.111 537.194 831.889 534.451 825.832 533.132V529.276L884.749 518.888V522.743C880.344 527.008 877.316 531.076 875.664 534.948C874.012 538.819 873.186 544.702 873.186 552.597V629.981C873.186 650.177 875.939 667.087 881.446 680.711C886.952 694.336 894.385 701.15 903.746 701.151L904.847 700.957C905.765 700.795 906.27 700.477 906.362 700.002C906.453 699.527 906.316 699.046 905.948 698.56C905.581 697.89 905.398 697.097 905.398 696.179C905.398 693.241 906.407 690.539 908.426 688.071C910.445 685.604 912.923 684.111 915.86 683.594C918.797 683.076 921.274 683.695 923.293 685.45C925.312 687.205 926.322 689.643 926.322 692.765C926.322 696.436 924.945 700.122 922.192 703.82C919.439 707.518 915.584 709.804 910.629 710.678C902.369 712.135 894.936 710.645 888.328 706.211C881.721 701.776 876.765 696.27 873.461 689.693C868.322 690.599 864.238 688.886 861.21 684.555C858.182 680.224 856.208 673.641 855.291 664.807C852.354 666.793 848.867 668.143 844.829 668.855C839.322 669.826 835.147 669.414 832.302 667.621C829.457 665.828 827.667 663.343 826.933 660.168V656.864C832.072 654.856 835.881 651.797 838.359 647.689C840.837 643.58 842.076 637.762 842.076 630.235C836.202 632.372 830.054 634.007 823.63 635.139C810.231 637.502 798.346 635.375 787.976 628.758C777.606 622.141 769.53 611.953 763.749 598.193C757.967 584.433 755.076 568.374 755.076 550.014Z" fill="#A16207"/>
<path d="M108.378 74.2334C108.378 71.9384 108.631 70.1957 109.135 69.0051C109.64 67.8146 110.672 66.8065 112.232 65.9806C112.599 62.4276 113.998 59.4959 116.429 57.1853C118.861 54.8748 121.682 53.4363 124.894 52.8701C126.82 52.5303 128.38 52.8061 129.573 53.6973C130.766 54.5886 131.546 55.7362 131.913 57.1403C132.004 57.3995 132.05 57.8045 132.05 58.3553C132.05 59.8241 131.545 61.1523 130.536 62.34C129.527 63.5277 128.288 64.251 126.82 64.5099C125.352 64.7687 124.114 64.4822 123.104 63.6504C122.095 62.8186 121.59 61.6683 121.59 60.1996C121.59 59.4652 121.774 58.6067 122.141 57.624C122.324 57.2245 122.347 56.968 122.21 56.8546C122.072 56.7411 121.82 56.7627 121.453 56.9192C119.801 57.9448 118.402 59.4537 117.255 61.446C116.108 63.4382 115.535 65.5359 115.535 67.739C115.535 77.3777 122.37 80.9918 136.041 78.5813C140.904 77.7238 146.272 76.2954 152.144 74.2962C158.016 72.2969 165.631 69.5083 174.99 65.9304C187.101 61.4081 197.125 57.8277 205.061 55.189C212.998 52.5504 220.865 50.5434 228.664 49.1683C235.454 47.9711 241.326 47.8307 246.28 48.7471C251.235 49.6636 254.997 51.2493 257.566 53.5043C260.135 55.7593 261.419 58.2638 261.419 61.0177C261.419 63.588 260.685 65.1862 259.217 65.8122C259.217 63.9763 258.139 62.3993 255.983 61.0812C253.827 59.7632 250.639 58.9484 246.418 58.6369C242.197 58.3255 237.151 58.6874 231.279 59.7228C226.049 60.645 216.461 63.4831 202.515 68.2371C200.313 69.0844 198.799 70.1086 197.973 71.3099C197.148 72.5112 196.735 74.1216 196.735 76.1411V165.643C196.735 172.344 199.717 176.454 205.68 177.973V179.901L171.136 185.992V184.064C177.1 180.442 180.082 175.281 180.082 168.579V83.2083C180.082 80.8216 179.646 79.2461 178.774 78.4818C177.903 77.7175 176.641 77.481 174.99 77.7722C173.98 77.9501 173.246 78.1255 172.788 78.2982C158.933 82.577 147.556 85.5011 138.656 87.0704C127.829 88.9794 120.077 88.5335 115.397 85.7326C110.718 82.9317 108.378 79.0986 108.378 74.2334Z" fill="#A16207"/>
<path d="M250.547 170.062C253.483 168.351 255.501 166.273 256.602 163.83C257.703 161.387 258.254 158.376 258.254 154.795V118.857L233.619 123.201V159.139C233.619 162.811 234.215 165.644 235.408 167.636C236.601 169.629 238.573 170.98 241.326 171.688V173.615L209.534 179.221V177.293C212.47 175.582 214.466 173.509 215.521 171.074C216.576 168.639 217.104 165.631 217.104 162.051V97.3345C217.104 93.5708 216.507 90.6926 215.314 88.6998C214.122 86.707 212.195 85.3944 209.534 84.762V82.8343L241.326 77.2285V79.1562C238.482 80.7593 236.486 82.7636 235.339 85.1689C234.192 87.5743 233.619 90.6587 233.619 94.4224V117.555L258.254 113.211V90.0786C258.254 86.3149 257.658 83.4367 256.465 81.4439C255.272 79.4511 253.3 78.1465 250.547 77.5303V75.6026L282.339 69.9969V71.9246C279.403 73.6356 277.407 75.7087 276.352 78.1438C275.297 80.5789 274.769 83.5864 274.769 87.1665V151.883C274.769 155.555 275.343 158.415 276.49 160.461C277.637 162.508 279.586 163.84 282.339 164.456V166.384L250.547 171.989V170.062Z" fill="#A16207"/>
<path d="M287.844 165.413V163.485C293.808 159.955 296.79 154.794 296.79 148.001V83.2838C296.79 76.3072 293.808 72.1972 287.844 70.9539V69.0262L340.142 59.8046V77.9804L338.49 78.2716C336.564 74.6641 334.591 72.0744 332.573 70.5026C330.554 68.9308 328.26 68.3713 325.691 68.8243L313.442 70.9842V103.067L317.847 102.291C322.618 101.449 326.425 97.9323 329.269 91.7393L331.471 91.3511V114.897L329.269 115.285C326.609 110.063 322.801 107.889 317.847 108.762L313.442 109.539V154.29L328.031 151.718C330.875 151.216 333.261 149.809 335.188 147.495C337.114 145.182 339.041 141.606 340.968 136.768L342.757 136.453V155.73L287.844 165.413Z" fill="#A16207"/>
<path fill-rule="evenodd" clip-rule="evenodd" d="M1358.23 208.559C1358.23 225.611 1350.95 238.227 1336.39 246.407V251.119L1416.72 236.955C1444.06 232.134 1465.18 217.077 1480.08 191.788C1494.98 166.494 1502.43 133.093 1502.43 91.5821C1502.43 57.6975 1494.59 33.0518 1478.9 17.642C1463.22 2.2315 1441.82 -3.08286 1414.7 1.69814L1336.39 15.507V20.2193C1350.95 23.9311 1358.23 33.9806 1358.23 50.3625V208.559ZM1449.83 186.182C1442.77 208.181 1431.51 220.547 1416.05 223.273L1398.9 226.296V18.2838L1408.32 16.6243C1425.12 13.6611 1438.01 18.4571 1446.97 31.0139C1455.93 43.57 1460.41 66.5631 1460.41 100C1460.41 135.453 1456.88 164.18 1449.83 186.182Z" fill="#E7E5E4"/>
<path d="M1178.41 274.262C1192.98 265.635 1200.26 253.018 1200.26 236.414V78.2174C1200.26 61.1623 1192.98 51.1128 1178.41 48.0742V43.362L1306.14 20.841V65.2707L1302.1 65.9819C1297.4 57.1615 1292.58 50.8315 1287.65 46.9887C1282.72 43.1452 1277.12 41.777 1270.84 42.8836L1240.93 48.1582V119.852L1248.33 118.548C1259.98 116.493 1269.28 107.896 1276.22 92.7603L1281.6 91.812V149.369L1276.22 150.317C1269.73 137.548 1260.43 132.234 1248.33 134.367L1240.93 135.671V251.794L1249 250.372C1256.62 249.029 1264.96 245.874 1274.04 240.908C1283.11 235.942 1291.01 228.938 1297.73 219.9C1304.46 210.859 1307.82 200.057 1307.82 187.493C1307.82 186.82 1307.87 185.406 1307.99 183.256C1308.1 181.101 1307.54 179.464 1306.3 178.335C1305.07 177.205 1303 176.898 1300.09 177.412C1296.95 177.965 1294.2 177.156 1291.85 174.993C1289.5 172.826 1288.32 170.062 1288.32 166.696C1288.32 163.104 1289.56 159.8 1292.02 156.788C1294.49 153.771 1297.51 151.948 1301.09 151.317L1301.43 151.257C1305.91 150.689 1309.44 152.032 1312.02 155.281C1314.6 158.529 1315.88 163.404 1315.88 169.914L1315.55 192.525C1315.33 197.276 1315.21 204.028 1315.21 212.779C1315.21 223.325 1315.83 231.519 1317.06 237.361C1318.29 243.202 1320.81 246.908 1324.62 248.481V253.194L1178.41 278.974V274.262Z" fill="#E7E5E4"/>
<path d="M1034.22 299.687V304.399L1164.97 281.345V224.461L1160.6 225.232C1155.22 240.99 1150.18 252.367 1145.47 259.37C1140.77 266.369 1134.94 270.483 1128 271.708L1096.4 277.279V96.5306C1096.4 87.7792 1097.8 80.4064 1100.6 74.4164C1103.41 68.4219 1108.62 63.2958 1116.23 59.0384V54.3261L1034.22 68.787V73.4992C1048.79 77.4367 1056.07 87.4862 1056.07 103.642V261.839C1056.07 278.217 1048.79 290.834 1034.22 299.687Z" fill="#E7E5E4"/>
<path fill-rule="evenodd" clip-rule="evenodd" d="M872.214 328.253C886.781 319.4 894.061 306.783 894.061 290.405V132.209C894.061 115.827 886.781 105.777 872.214 102.065V97.3531L968.343 80.4031C985.599 77.3604 999.49 80.3499 1010.02 89.3787C1020.55 98.4031 1025.82 111.891 1025.82 129.845C1025.82 142.184 1023.02 153.617 1017.41 164.144C1011.82 174.667 1004.03 183.388 994.055 190.31C984.086 197.227 972.827 201.794 960.276 204.007L934.731 208.511V283.234C934.731 299.838 943.249 309.669 960.276 312.726V317.438L872.214 332.965V328.253ZM949.52 191.767C958.931 190.108 966.719 184.638 972.88 175.363C979.045 166.083 982.123 154.826 982.123 141.588C982.123 126.779 979.045 115.315 972.88 107.203C966.719 99.087 958.931 95.8627 949.52 97.5222L934.731 100.13V194.375L949.52 191.767Z" fill="#E7E5E4"/>
<path d="M796.253 307.652C796.253 324.03 788.973 336.647 774.405 345.499V350.212L858.77 335.336V330.624C844.206 326.907 836.923 316.859 836.923 300.481V142.284C836.923 125.902 844.206 113.284 858.77 104.436V99.7237L774.405 114.599V119.312C788.973 123.023 796.253 133.073 796.253 149.455V307.652Z" fill="#E7E5E4"/>
<path d="M760.961 299.065L758.272 344.305C750.877 349.87 743.819 354.201 737.097 357.295C730.374 360.385 721.525 362.902 710.544 364.838C692.619 367.999 676.596 365.66 662.48 357.83C648.363 349.996 637.386 337.794 629.54 321.228C621.699 304.656 617.776 285.153 617.776 262.716C617.776 237.357 621.642 214.629 629.372 194.532C637.103 174.43 647.748 158.249 661.303 145.986C674.862 133.72 690.266 126.069 707.519 123.027C718.947 121.012 729.313 120.194 738.609 120.575C747.91 120.954 754.575 122.583 758.608 125.463L760.625 173.24L756.255 174.347L751.213 164.128C746.733 154.821 740.515 147.387 732.559 141.837C724.607 136.281 716.258 134.277 707.519 135.818C698.78 137.359 691.106 143.198 684.495 153.341C677.887 163.479 672.731 176.957 669.034 193.765C665.337 210.573 663.488 229.186 663.488 249.607C663.488 271.596 665.619 290.632 669.874 306.711C674.133 322.789 679.904 334.73 687.184 342.535C694.468 350.338 702.255 353.509 710.544 352.047C721.525 350.111 730.825 344.486 738.441 335.18C746.061 325.869 752.111 314.089 756.591 299.835L760.961 299.065Z" fill="#E7E5E4"/>
<path d="M472.911 237.435L572.065 387.236L585.173 384.925V186.674C585.173 170.066 592.121 157.512 606.012 149.004V144.292L544.504 155.137V159.849C552.796 161.302 558.735 164.462 562.318 169.331C565.904 174.194 567.695 181.004 567.695 189.756V290.059L486.356 165.39L434.595 174.517V179.229C441.317 180.959 446.416 184.213 449.888 188.987C453.363 193.759 455.097 200.633 455.097 209.61V367.806C455.097 384.636 447.928 397.229 433.586 405.595V410.307L493.414 399.758V395.046C485.126 393.814 479.634 390.912 476.945 386.337C474.256 381.763 472.911 374.537 472.911 364.665V237.435Z" fill="#E7E5E4"/>
<path d="M335.777 422.841C350.345 413.988 357.625 401.372 357.625 384.994V226.797C357.625 210.415 350.345 200.365 335.777 196.653V191.941L420.142 177.066V181.778C405.578 190.626 398.294 203.244 398.294 219.626V377.822C398.294 394.2 405.578 404.249 420.142 407.966V412.678L335.777 427.554V422.841Z" fill="#E7E5E4"/>
<path fill-rule="evenodd" clip-rule="evenodd" d="M183.854 415.634C183.854 432.012 176.574 444.629 162.007 453.482V458.194L245.027 443.555V438.843C231.135 435.008 224.188 424.9 224.188 408.522V350.629C225.983 350.985 227.774 351.006 229.565 350.69C231.361 350.374 233.041 349.458 234.607 347.95C236.177 346.438 236.96 344.674 236.96 342.655C236.96 341.53 236.624 340.694 235.952 340.14C235.058 341.192 233.824 341.861 232.254 342.138C231.135 342.335 230.184 341.998 229.397 341.127C228.614 340.255 228.221 339.147 228.221 337.8C228.221 335.329 229.008 333.229 230.574 331.495C232.144 329.757 234.16 328.675 236.624 328.241C243.125 327.094 248.334 328.811 252.253 333.394C256.176 337.974 259.143 344.182 261.16 352.019C263.177 359.853 265.419 370.959 267.882 385.334C272.366 410.572 277.462 431.273 283.176 447.431C288.89 463.59 299.087 476.655 313.762 486.636C328.44 496.613 349 499.271 375.439 494.61C385.301 492.871 393.646 489.659 400.479 484.977C402.527 483.574 404.418 482.123 406.153 480.625C405.291 485.056 404.86 489.557 404.86 494.127C404.86 504.042 406.971 513.17 411.193 521.514C415.414 529.857 421.012 536.444 427.987 541.272C434.961 546.101 442.303 548.387 450.012 548.129C436.613 551.226 423.031 558.257 409.265 569.221C395.5 580.185 384.074 593.858 374.989 610.239C365.903 626.621 361.361 643.991 361.361 662.35C361.361 685.85 366.821 705.129 377.742 720.186C388.663 735.242 403.163 745.583 421.242 751.208C439.321 756.833 458.914 757.784 480.021 754.062C499.844 750.567 517.464 743.283 532.881 732.211C548.299 721.139 560.275 707.874 568.81 692.416C577.345 676.958 581.612 661.059 581.612 644.719C581.612 624.524 577.849 608.205 570.324 595.762C562.799 583.32 553.209 574.821 541.554 570.267C529.899 565.713 518.106 564.487 506.176 566.591C496.632 568.274 487.868 571.058 479.884 574.945C471.899 578.831 465.567 583.436 460.887 588.759C456.206 594.083 453.866 599.59 453.866 605.281C453.866 608.219 454.371 610.838 455.38 613.138C456.39 615.439 457.629 616.919 459.097 617.578C455.61 619.111 451.985 622.228 448.222 626.931C444.46 631.634 441.339 637.37 438.862 644.141C436.384 650.912 435.145 657.969 435.145 665.313C435.145 676.329 437.302 685.541 441.615 692.951C445.928 700.36 451.939 705.588 459.648 708.635C467.357 711.682 476.075 712.348 485.803 710.633C493.144 709.338 499.89 706.588 506.038 702.383C512.187 698.178 517.051 693.235 520.63 687.555C524.209 681.875 525.999 676.19 525.999 670.498C525.999 665.908 524.622 661.653 521.869 657.732C519.116 653.811 515.445 651.888 510.856 651.963C509.939 656.164 507.231 660.313 502.735 664.411C498.238 668.508 493.603 670.978 488.831 671.819C480.572 673.276 474.194 671.509 469.697 666.518C465.2 661.528 462.952 655.177 462.952 647.467C462.952 635.533 466.944 624.961 474.928 615.75C482.912 606.54 493.512 600.769 506.727 598.439C516.822 596.659 526.274 597.104 535.084 599.773C543.894 602.442 551.006 607.752 556.421 615.701C561.835 623.651 564.543 634.327 564.543 647.729C564.543 663.151 561.055 677.168 554.081 689.781C547.106 702.394 537.241 712.9 524.484 721.299C511.728 729.699 496.907 735.388 480.021 738.365C466.255 740.792 453.224 739.372 440.927 734.105C428.629 728.838 418.626 719.402 410.917 705.799C403.208 692.195 399.354 674.653 399.354 653.173C399.354 634.079 403.346 616.852 411.33 601.491C419.314 586.13 429.271 573.817 441.202 564.554C453.132 555.29 464.787 549.655 476.167 547.648C480.205 546.936 484.839 545.247 490.07 542.58C495.301 539.914 497.917 536.377 497.917 531.971C497.917 530.319 497.549 528.823 496.815 527.484C495.163 528.693 492.915 529.824 490.07 530.876C487.225 531.929 484.334 532.714 481.398 533.231C475.341 534.3 469.009 533.167 462.401 529.834C455.793 526.501 450.241 521.1 445.744 513.631C441.248 506.163 438.999 497.196 438.999 486.731C438.999 471.125 442.441 457.437 449.324 445.667C456.206 433.897 466.072 426.879 478.92 424.614C488.464 422.931 496.402 424.514 502.735 429.365C509.067 434.215 512.233 441.689 512.233 451.787C512.233 457.662 510.81 462.961 507.966 467.686C505.121 472.41 500.762 475.29 494.888 476.325C490.116 477.167 486.445 475.978 483.876 472.759C481.306 469.541 480.021 465.728 480.021 461.322C480.021 460.037 480.297 458.978 480.847 458.147C479.746 457.974 478.186 458.065 476.167 458.421C471.028 459.328 466.852 462.313 463.64 467.377C460.428 472.442 458.822 477.728 458.822 483.236C458.822 492.048 462.08 498.955 468.596 503.957C475.111 508.958 483.6 510.536 494.062 508.692C502.689 507.171 510.122 503.84 516.363 498.701C518.565 509.328 522.97 516.997 529.578 521.707C536.185 526.417 544.261 527.93 553.805 526.247C562.248 524.759 568.259 521.725 571.838 517.147C575.417 512.568 577.207 507.892 577.207 503.119C577.207 499.631 576.06 496.758 573.766 494.5C571.471 492.243 568.581 491.421 565.093 492.036C561.606 492.651 558.807 494.292 556.696 496.959C554.585 499.626 553.53 502.337 553.53 505.091C553.53 509.313 555.274 512.402 558.761 514.358C559.495 514.596 559.541 515.001 558.899 515.573C558.256 516.145 557.293 516.545 556.008 516.771C551.236 517.613 547.244 515.884 544.032 511.585C540.82 507.286 538.434 501.832 536.874 495.222C535.313 488.612 534.533 482.278 534.533 476.22C534.533 469.059 535.635 461.43 537.837 453.33C540.04 445.231 543.297 438.231 547.611 432.33C551.924 426.429 557.017 422.96 562.891 421.924C563.074 421.341 563.166 420.591 563.166 419.673C563.166 417.653 562.34 416.284 560.688 415.566C559.036 414.847 557.017 414.698 554.631 415.119C545.087 416.802 536.828 422.206 529.853 431.33C525.448 423.478 518.794 418.133 509.893 415.297C500.991 412.46 490.667 412.078 478.92 414.149C464.42 416.705 451.572 421.954 440.376 429.895C429.18 437.836 420.462 447.452 414.221 458.742C413.581 459.9 412.973 461.063 412.399 462.232C409.899 464.872 407.046 467.263 403.84 469.406C397.454 473.673 391.015 476.38 384.514 477.526C370.397 480.016 358.969 477.708 350.23 470.613C341.491 463.513 334.826 454.086 330.231 442.332C325.64 430.573 320.652 414.401 315.274 393.807C309.224 371.087 303.342 353.164 297.628 340.035C291.915 326.906 283.905 317.547 273.596 311.96C286.819 305.59 297.629 297.063 306.031 286.382C314.434 275.698 318.636 264.075 318.636 251.511C318.636 233.782 312.922 220.933 301.494 212.965C290.066 204.993 275.166 202.629 256.791 205.869L162.007 222.582V227.294C176.574 231.231 183.854 241.281 183.854 257.437V415.634ZM264.857 291.791C258.135 300.94 249.175 306.505 237.968 308.481L224.188 310.911V225.418L237.968 222.988C248.052 221.21 256.737 223.603 264.017 230.175C271.301 236.743 274.941 246.425 274.941 259.215C274.941 271.78 271.58 282.639 264.857 291.791Z" fill="#E7E5E4"/>
<path fill-rule="evenodd" clip-rule="evenodd" d="M21.8474 444.2C21.8474 460.578 14.5675 473.195 0 482.048V486.76L88.0617 471.233V466.52C71.0345 463.464 62.517 453.633 62.517 437.029V362.306L88.0617 357.802C100.612 355.589 111.872 351.022 121.841 344.104C131.814 337.182 139.602 328.461 145.201 317.939C150.804 307.412 153.604 295.979 153.604 283.64C153.604 265.686 148.341 252.198 137.806 243.174C127.276 234.145 113.385 231.155 96.1284 234.198L0 251.148V255.86C14.5675 259.572 21.8474 269.621 21.8474 286.003V444.2ZM100.666 329.157C94.5051 338.433 86.7172 343.902 77.3061 345.562L62.517 348.169V253.925L77.3061 251.317C86.7172 249.657 94.5051 252.882 100.666 260.998C106.831 269.11 109.909 280.573 109.909 295.383C109.909 308.621 106.831 319.878 100.666 329.157Z" fill="#E7E5E4"/>
<path fill-rule="evenodd" clip-rule="evenodd" d="M1343.41 551.841C1340.65 554.621 1339.28 558.673 1339.28 563.997C1339.28 568.22 1340.56 572.17 1343.13 575.848C1345.7 579.526 1348.91 582.448 1352.77 584.614C1356.62 586.78 1360.2 587.939 1363.51 588.091C1363.32 588.858 1363.23 589.883 1363.23 591.169C1363.23 596.126 1365.39 599.922 1369.7 602.558C1374.01 605.194 1379.57 605.913 1386.36 604.716C1399.75 602.353 1412.56 598.581 1424.76 593.4C1436.97 588.218 1447.71 582.745 1456.97 576.98C1466.24 571.215 1478.13 563.474 1492.63 553.757C1505.48 568.933 1525.57 574.109 1552.92 569.287C1566.87 566.828 1578.2 562.167 1586.92 555.306C1595.64 548.444 1600 540.24 1600 530.693C1600 522.615 1595.92 516.955 1587.75 513.714C1579.58 510.472 1568.25 510.13 1553.75 512.687C1544.02 514.402 1533.47 517.548 1522.09 522.125C1519.88 515.904 1517.96 509.267 1516.3 502.214C1514.65 495.162 1512.73 486.322 1510.52 475.695C1506.12 455.175 1501.99 439.288 1498.13 428.034C1494.28 416.78 1488.86 408.555 1481.89 403.359C1493.27 398.048 1502.58 390.989 1509.83 382.183C1517.08 373.378 1520.71 363.651 1520.71 353.002C1520.71 338.498 1516.03 327.987 1506.67 321.467C1497.31 314.948 1485.1 313.015 1470.05 315.669L1392.41 329.359V333.214C1404.34 336.435 1410.31 344.654 1410.31 357.873V487.307C1410.31 500.709 1404.34 511.033 1392.41 518.277V522.132L1460.42 510.142V506.286C1449.04 503.152 1443.35 494.884 1443.35 481.481V433.013C1445.18 433.974 1447.38 434.228 1449.95 433.775C1451.42 433.516 1452.8 432.769 1454.08 431.532C1455.37 430.296 1456.01 428.852 1456.01 427.199C1456.01 426.281 1455.74 425.596 1455.18 425.142C1454.45 426.006 1453.44 426.551 1452.16 426.777C1451.24 426.939 1450.46 426.664 1449.82 425.951C1449.17 425.238 1448.85 424.331 1448.85 423.229C1448.85 421.21 1449.49 419.49 1450.78 418.07C1452.06 416.65 1453.72 415.762 1455.74 415.406C1460.87 414.5 1464.68 416.077 1467.16 420.139C1469.64 424.2 1471.24 429.654 1471.98 436.501C1472.71 443.348 1473.26 453.257 1473.63 466.227C1474 482.686 1474.82 496.631 1476.11 508.063C1477.39 519.495 1480.05 529.903 1484.09 539.289L1477.76 542.333C1458.49 551.606 1442.24 558.877 1429.03 564.144C1415.81 569.412 1402.42 573.243 1388.83 575.638C1374.15 578.227 1363.51 577.901 1356.9 574.66C1356.16 574.055 1355.48 573.259 1354.83 572.27C1354.19 571.282 1353.87 570.329 1353.87 569.411C1353.87 568.493 1354.33 567.678 1355.25 566.965C1357.26 565.875 1358.96 564.336 1360.34 562.349C1361.72 560.362 1362.4 558.176 1362.4 555.789C1362.4 552.852 1361.39 550.505 1359.38 548.75C1357.36 546.994 1354.88 546.375 1351.94 546.893L1351.39 546.99C1348.82 547.443 1346.16 549.06 1343.41 551.841ZM1476.66 385.968C1471.15 393.456 1463.81 398.009 1454.63 399.628L1443.35 401.618V331.669L1454.63 329.678C1462.89 328.222 1470.01 330.181 1475.97 335.555C1481.94 340.929 1484.92 348.848 1484.92 359.313C1484.92 369.594 1482.17 378.479 1476.66 385.968ZM1542.18 551.766C1535.94 547.633 1530.71 541.166 1526.49 532.364C1538.61 526.005 1549.62 521.952 1559.53 520.204C1569.81 518.392 1577.7 518.653 1583.21 520.986C1588.71 523.32 1591.47 527.057 1591.47 532.198C1591.47 537.522 1589.03 542.403 1584.17 546.841C1579.31 551.279 1572.93 554.193 1565.04 555.585C1556.04 557.171 1548.42 555.898 1542.18 551.766Z" fill="#E7E5E4"/>
<path d="M1259.44 541.724C1271.37 534.664 1277.33 524.34 1277.33 510.754V381.321C1277.33 367.368 1271.37 359.148 1259.44 356.662V352.806L1364.06 334.359V370.711L1360.75 371.293C1356.9 364.078 1352.95 358.899 1348.91 355.756C1344.88 352.612 1340.29 351.493 1335.15 352.4L1310.64 356.72V415.378L1316.7 414.31C1326.25 412.628 1333.86 405.593 1339.55 393.207L1343.96 392.43V439.522L1339.55 440.299C1334.23 429.855 1326.61 425.506 1316.7 427.254L1310.64 428.322V523.332L1317.25 522.167C1323.49 521.066 1330.33 518.484 1337.76 514.419C1345.2 510.354 1351.67 504.624 1357.17 497.227C1362.68 489.83 1365.43 480.991 1365.43 470.71C1365.43 470.159 1365.48 469.004 1365.57 467.243C1365.66 465.483 1365.2 464.141 1364.19 463.218C1363.18 462.294 1361.49 462.043 1359.1 462.463C1356.53 462.916 1354.28 462.257 1352.35 460.486C1350.43 458.714 1349.46 456.452 1349.46 453.698C1349.46 450.76 1350.47 448.058 1352.49 445.59C1354.51 443.123 1356.99 441.63 1359.93 441.113L1360.2 441.064C1363.87 440.601 1366.76 441.697 1368.87 444.354C1370.98 447.011 1372.04 451.002 1372.04 456.326L1371.76 474.826C1371.58 478.714 1371.49 484.238 1371.49 491.398C1371.49 500.027 1371.99 506.731 1373 511.51C1374.01 516.289 1376.08 519.321 1379.2 520.607V524.463L1259.44 545.58V541.724Z" fill="#E7E5E4"/>
<path d="M1145.18 534.056C1145.18 547.642 1139.22 557.965 1127.29 565.026V568.882L1247.05 547.764V543.909C1243.93 542.623 1241.86 539.591 1240.85 534.812C1239.84 530.033 1239.34 523.329 1239.34 514.7C1239.34 507.54 1239.43 502.016 1239.61 498.128L1239.89 479.628C1239.89 474.304 1238.83 470.313 1236.72 467.656C1234.61 464.999 1231.72 463.902 1228.05 464.366L1227.77 464.414C1224.84 464.932 1222.36 466.425 1220.34 468.892C1218.32 471.359 1217.31 474.062 1217.31 476.999C1217.31 479.753 1218.28 482.016 1220.2 483.787C1222.13 485.559 1224.38 486.218 1226.95 485.765C1229.33 485.344 1231.03 485.596 1232.04 486.519C1233.05 487.443 1233.51 488.785 1233.42 490.545C1233.33 492.306 1233.28 493.461 1233.28 494.012C1233.28 504.293 1230.53 513.132 1225.02 520.529C1219.52 527.925 1213.05 533.656 1205.61 537.721C1198.18 541.785 1191.34 544.368 1185.1 545.468L1178.49 546.633V451.623L1184.55 450.555C1194.46 448.808 1202.08 453.156 1207.4 463.601L1211.81 462.824V415.732L1207.4 416.509C1201.71 428.895 1194.09 435.929 1184.55 437.612L1178.49 438.68V380.022L1203 375.701C1208.14 374.795 1212.72 375.914 1216.76 379.057C1220.8 382.201 1224.75 387.38 1228.6 394.595L1231.9 394.012V357.661L1127.29 376.108V379.963C1139.22 382.45 1145.18 390.669 1145.18 404.622V534.056Z" fill="#E7E5E4"/>
<path d="M1085.71 577.313L1004.5 454.765V558.863C1004.5 566.941 1005.6 572.851 1007.8 576.594C1010 580.336 1014.5 582.71 1021.29 583.716V587.571L972.283 596.212V592.357C984.03 585.512 989.903 575.205 989.903 561.436V432.002C989.903 424.658 988.481 419.034 985.636 415.129C982.791 411.225 978.615 408.564 973.109 407.149V403.293L1015.51 395.817L1082.13 497.806V415.739C1082.13 408.579 1080.67 403.009 1077.73 399.028C1074.79 395.048 1069.93 392.464 1063.14 391.274V387.419L1113.52 378.535V382.39C1102.14 389.354 1096.45 399.629 1096.45 413.215V575.42L1085.71 577.313Z" fill="#E7E5E4"/>
<path d="M907.309 575.999C907.309 589.402 901.344 599.725 889.414 606.969V610.825L958.518 598.64V594.784C946.587 591.747 940.622 583.528 940.622 570.125V440.692C940.622 427.289 946.587 416.966 958.518 409.722V405.866L889.414 418.051V421.907C901.344 424.944 907.309 433.163 907.309 446.566V575.999Z" fill="#E7E5E4"/>
<path d="M625.662 521.563L706.88 644.112L717.618 642.218V480.013C717.618 466.427 723.307 456.152 734.687 449.189V445.333L684.304 454.217V458.073C691.095 459.262 695.959 461.847 698.896 465.827C701.833 469.807 703.301 475.377 703.301 482.537V564.604L636.675 462.615L594.277 470.091V473.947C599.783 475.363 603.959 478.023 606.804 481.927C609.649 485.832 611.071 491.456 611.071 498.8V628.234C611.071 642.003 605.198 652.311 593.451 659.155V663.011L642.457 654.37V650.514C635.666 649.509 631.169 647.134 628.966 643.392C626.764 639.649 625.662 633.739 625.662 625.661V521.563Z" fill="#E7E5E4"/>
<path d="M747.076 542.014C747.076 521.084 750.105 502.512 756.162 486.298C762.219 470.083 770.707 456.974 781.628 446.97C792.549 436.967 805.259 430.686 819.759 428.13C828.753 426.544 837.333 426.5 845.501 427.997C853.669 429.494 859.772 431.631 863.81 434.407L859.955 469.786L856.376 470.693C851.971 458.985 846.924 450.328 841.234 444.722C835.544 439.116 828.386 437.074 819.759 438.595C812.234 439.922 805.626 444.942 799.937 453.656C794.247 462.37 789.796 473.758 786.584 487.818C783.372 501.879 781.766 517.354 781.766 534.245C781.766 561.417 785.345 581.991 792.503 595.967C799.661 609.943 809.297 615.863 821.411 613.728C825.082 613.08 828.111 611.49 830.497 608.958C832.883 606.426 834.076 603.6 834.076 600.479V550.082C834.076 543.105 832.883 537.533 830.497 533.364C828.111 529.194 823.889 526.451 817.832 525.132V521.276L876.749 510.888V514.743C872.344 519.008 869.316 523.076 867.664 526.948C866.012 530.819 865.186 536.702 865.186 544.597V621.981C865.186 642.177 867.939 659.087 873.446 672.711C878.952 686.336 886.385 693.15 895.746 693.151L896.847 692.957C897.765 692.795 898.27 692.477 898.362 692.002C898.453 691.527 898.316 691.046 897.948 690.56C897.581 689.89 897.398 689.097 897.398 688.179C897.398 685.241 898.407 682.539 900.426 680.071C902.445 677.604 904.923 676.111 907.86 675.594C910.797 675.076 913.274 675.695 915.293 677.45C917.312 679.205 918.322 681.643 918.322 684.765C918.322 688.436 916.945 692.122 914.192 695.82C911.439 699.518 907.584 701.804 902.629 702.678C894.369 704.135 886.936 702.645 880.328 698.211C873.721 693.776 868.765 688.27 865.461 681.693C860.322 682.599 856.238 680.886 853.21 676.555C850.182 672.224 848.208 665.641 847.291 656.807C844.354 658.793 840.867 660.143 836.829 660.855C831.322 661.826 827.147 661.414 824.302 659.621C821.457 657.828 819.667 655.343 818.933 652.168V648.864C824.072 646.856 827.881 643.797 830.359 639.689C832.837 635.58 834.076 629.762 834.076 622.235C828.202 624.372 822.054 626.007 815.63 627.139C802.231 629.502 790.346 627.375 779.976 620.758C769.606 614.141 761.53 603.953 755.749 590.193C749.967 576.433 747.076 560.374 747.076 542.014Z" fill="#E7E5E4"/>
<path d="M100.378 66.2334C100.378 63.9384 100.631 62.1957 101.135 61.0051C101.64 59.8146 102.672 58.8065 104.232 57.9806C104.599 54.4276 105.998 51.4959 108.429 49.1853C110.861 46.8748 113.682 45.4363 116.894 44.8701C118.82 44.5303 120.38 44.8061 121.573 45.6973C122.766 46.5886 123.546 47.7362 123.913 49.1403C124.004 49.3995 124.05 49.8045 124.05 50.3553C124.05 51.8241 123.545 53.1523 122.536 54.34C121.527 55.5277 120.288 56.251 118.82 56.5099C117.352 56.7687 116.114 56.4822 115.104 55.6504C114.095 54.8186 113.59 53.6683 113.59 52.1996C113.59 51.4652 113.774 50.6067 114.141 49.624C114.324 49.2245 114.347 48.968 114.21 48.8546C114.072 48.7411 113.82 48.7627 113.453 48.9192C111.801 49.9448 110.402 51.4537 109.255 53.446C108.108 55.4382 107.535 57.5359 107.535 59.739C107.535 69.3777 114.37 72.9918 128.041 70.5813C132.904 69.7238 138.272 68.2954 144.144 66.2962C150.016 64.2969 157.631 61.5083 166.99 57.9304C179.101 53.4081 189.125 49.8277 197.061 47.189C204.998 44.5504 212.865 42.5434 220.664 41.1683C227.454 39.9711 233.326 39.8307 238.28 40.7471C243.235 41.6636 246.997 43.2493 249.566 45.5043C252.135 47.7593 253.419 50.2638 253.419 53.0177C253.419 55.588 252.685 57.1862 251.217 57.8122C251.217 55.9763 250.139 54.3993 247.983 53.0812C245.827 51.7632 242.639 50.9484 238.418 50.6369C234.197 50.3255 229.151 50.6874 223.279 51.7228C218.049 52.645 208.461 55.4831 194.515 60.2371C192.313 61.0844 190.799 62.1086 189.973 63.3099C189.148 64.5112 188.735 66.1216 188.735 68.1411V157.643C188.735 164.344 191.717 168.454 197.68 169.973V171.901L163.136 177.992V176.064C169.1 172.442 172.082 167.281 172.082 160.579V75.2083C172.082 72.8216 171.646 71.2461 170.774 70.4818C169.903 69.7175 168.641 69.481 166.99 69.7722C165.98 69.9501 165.246 70.1255 164.788 70.2982C150.933 74.577 139.556 77.5011 130.656 79.0704C119.829 80.9794 112.077 80.5335 107.397 77.7326C102.718 74.9317 100.378 71.0986 100.378 66.2334Z" fill="#E7E5E4"/>
<path d="M242.547 162.062C245.483 160.351 247.501 158.273 248.602 155.83C249.703 153.387 250.254 150.376 250.254 146.795V110.857L225.619 115.201V151.139C225.619 154.811 226.215 157.644 227.408 159.636C228.601 161.629 230.573 162.98 233.326 163.688V165.615L201.534 171.221V169.293C204.47 167.582 206.466 165.509 207.521 163.074C208.576 160.639 209.104 157.631 209.104 154.051V89.3345C209.104 85.5708 208.507 82.6926 207.314 80.6998C206.122 78.707 204.195 77.3944 201.534 76.762V74.8343L233.326 69.2285V71.1562C230.482 72.7593 228.486 74.7636 227.339 77.1689C226.192 79.5743 225.619 82.6587 225.619 86.4224V109.555L250.254 105.211V82.0786C250.254 78.3149 249.658 75.4367 248.465 73.4439C247.272 71.4511 245.3 70.1465 242.547 69.5303V67.6026L274.339 61.9969V63.9246C271.403 65.6356 269.407 67.7087 268.352 70.1438C267.297 72.5789 266.769 75.5864 266.769 79.1665V143.883C266.769 147.555 267.343 150.415 268.49 152.461C269.637 154.508 271.586 155.84 274.339 156.456V158.384L242.547 163.989V162.062Z" fill="#E7E5E4"/>
<path d="M279.844 157.413V155.485C285.808 151.955 288.79 146.794 288.79 140.001V75.2838C288.79 68.3072 285.808 64.1972 279.844 62.9539V61.0262L332.142 51.8046V69.9804L330.49 70.2716C328.564 66.6641 326.591 64.0744 324.573 62.5026C322.554 60.9308 320.26 60.3713 317.691 60.8243L305.442 62.9842V95.0672L309.847 94.2906C314.618 93.4494 318.425 89.9323 321.269 83.7393L323.471 83.3511V106.897L321.269 107.285C318.609 102.063 314.801 99.8887 309.847 100.762L305.442 101.539V146.29L320.031 143.718C322.875 143.216 325.261 141.809 327.188 139.495C329.114 137.182 331.041 133.606 332.968 128.768L334.757 128.453V147.73L279.844 157.413Z" fill="#E7E5E4"/>
</svg>
