<svg viewBox="0 0 240 114" fill="none" xmlns="http://www.w3.org/2000/svg">
<path fill-rule="evenodd" clip-rule="evenodd" d="M202.968 31.1661C202.968 33.7142 201.88 35.5996 199.704 36.8219V37.5261L211.708 35.4094C215.793 34.689 218.949 32.439 221.176 28.6599C223.403 24.88 224.516 19.8889 224.516 13.6856C224.516 8.62206 223.344 4.93912 221 2.63634C218.656 0.333465 215.458 -0.460688 211.406 0.253763L199.704 2.3173V3.02147C201.88 3.57615 202.968 5.0779 202.968 7.52594V31.1661ZM216.655 27.8222C215.6 31.1096 213.918 32.9575 211.607 33.3649L209.046 33.8166V2.73224L210.452 2.48426C212.964 2.04144 214.889 2.75815 216.228 4.63457C217.568 6.5109 218.237 9.94688 218.237 14.9436C218.237 20.2415 217.71 24.5343 216.655 27.8222Z" fill="#4d4b48"/>
<path d="M176.097 40.9844C178.274 39.6952 179.361 37.8098 179.361 35.3286V11.6885C179.361 9.13982 178.274 7.63807 176.097 7.18399V6.47982L195.183 3.11439V9.75376L194.58 9.86003C193.877 8.54195 193.157 7.59602 192.421 7.02177C191.684 6.44743 190.847 6.24297 189.909 6.40832L185.439 7.19654V17.9101L186.544 17.7152C188.285 17.4082 189.675 16.1234 190.713 13.8617L191.516 13.72V22.321L190.713 22.4627C189.742 20.5545 188.352 19.7604 186.544 20.0793L185.439 20.2741V37.627L186.644 37.4145C187.783 37.2137 189.03 36.7423 190.386 36.0002C191.742 35.2581 192.923 34.2114 193.927 32.8609C194.932 31.5097 195.434 29.8957 195.434 28.0181C195.434 27.9175 195.443 27.7062 195.459 27.3849C195.476 27.0629 195.393 26.8182 195.208 26.6495C195.024 26.4808 194.714 26.4348 194.279 26.5116C193.81 26.5942 193.4 26.4734 193.048 26.1502C192.697 25.8263 192.521 25.4132 192.521 24.9102C192.521 24.3735 192.705 23.8798 193.073 23.4296C193.442 22.9788 193.894 22.7065 194.43 22.6121L194.48 22.6032C195.15 22.5182 195.677 22.719 196.062 23.2045C196.447 23.6898 196.64 24.4184 196.64 25.3912L196.589 28.77C196.556 29.48 196.539 30.489 196.539 31.7968C196.539 33.3726 196.632 34.5972 196.815 35.4701C197 36.343 197.376 36.8967 197.946 37.1319V37.8361L176.097 41.6886V40.9844Z" fill="#4d4b48"/>
<path d="M154.549 44.7839V45.488L174.088 42.0429V33.5425L173.435 33.6576C172.631 36.0124 171.878 37.7125 171.174 38.759C170.471 39.805 169.601 40.4197 168.563 40.6028L163.841 41.4353V14.4251C163.841 13.1173 164.051 12.0156 164.469 11.1204C164.888 10.2246 165.667 9.45864 166.805 8.82242V8.11825L154.549 10.2792V10.9834C156.726 11.5718 157.814 13.0735 157.814 15.4878V39.1281C157.814 41.5755 156.726 43.4609 154.549 44.7839Z" fill="#4d4b48"/>
<path fill-rule="evenodd" clip-rule="evenodd" d="M130.34 49.0526C132.517 47.7297 133.604 45.8443 133.604 43.3968V19.7566C133.604 17.3086 132.517 15.8069 130.34 15.2522V14.548L144.705 12.0151C147.283 11.5604 149.359 12.0071 150.933 13.3563C152.507 14.7049 153.293 16.7205 153.293 19.4034C153.293 21.2473 152.875 22.9558 152.038 24.5289C151.201 26.1014 150.037 27.4046 148.547 28.439C147.057 29.4727 145.375 30.1552 143.499 30.4859L139.682 31.159V42.3252C139.682 44.8064 140.955 46.2756 143.499 46.7323V47.4364L130.34 49.7568V49.0526ZM141.892 28.6568C143.298 28.4088 144.462 27.5914 145.383 26.2054C146.304 24.8186 146.764 23.1365 146.764 21.1583C146.764 18.9452 146.304 17.2322 145.383 16.02C144.462 14.8071 143.298 14.3253 141.892 14.5733L139.682 14.9629V29.0465L141.892 28.6568Z" fill="#4d4b48"/>
<path d="M118.988 45.974C118.988 48.4215 117.9 50.3069 115.724 51.6298V52.334L128.331 50.1111V49.4069C126.154 48.8515 125.066 47.3499 125.066 44.9024V21.2622C125.066 18.8142 126.154 16.9287 128.331 15.6064V14.9023L115.724 17.1252V17.8294C117.9 18.3841 118.988 19.8858 118.988 22.3338V45.974Z" fill="#4d4b48"/>
<path d="M113.714 44.6908L113.313 51.4514C112.208 52.2829 111.153 52.9302 110.148 53.3925C109.144 53.8543 107.821 54.2304 106.18 54.5197C103.502 54.992 101.107 54.6426 98.9979 53.4724C96.8884 52.3017 95.248 50.4784 94.0756 48.0028C92.9038 45.5264 92.3177 42.6119 92.3177 39.2591C92.3177 35.4696 92.8953 32.0732 94.0505 29.0699C95.2057 26.0661 96.7964 23.6479 98.8221 21.8155C100.848 19.9825 103.15 18.8392 105.728 18.3846C107.436 18.0835 108.985 17.9613 110.374 18.0181C111.764 18.0748 112.76 18.3182 113.363 18.7486L113.664 25.8881L113.011 26.0536L112.258 24.5266C111.588 23.1357 110.659 22.0249 109.47 21.1954C108.282 20.3653 107.034 20.0657 105.728 20.296C104.422 20.5262 103.276 21.3989 102.288 22.9146C101.3 24.4296 100.53 26.4436 99.9773 28.9554C99.4248 31.4671 99.1486 34.2485 99.1486 37.3001C99.1486 40.5861 99.467 43.4306 100.103 45.8335C100.739 48.2361 101.602 50.0206 102.69 51.1868C103.778 52.3529 104.942 52.8267 106.18 52.6084C107.821 52.319 109.211 51.4784 110.349 50.0877C111.488 48.6963 112.392 46.9359 113.062 44.806L113.714 44.6908Z" fill="#4d4b48"/>
<path d="M70.6697 35.4812L85.4868 57.8668L87.4456 57.5214V27.8957C87.4456 25.4139 88.4838 23.5378 90.5597 22.2664V21.5623L81.3681 23.183V23.8872C82.6073 24.1042 83.4948 24.5765 84.0302 25.304C84.5661 26.0308 84.8338 27.0484 84.8338 28.3562V43.3451L72.6788 24.7152L64.9438 26.079V26.7832C65.9484 27.0416 66.7103 27.528 67.2291 28.2413C67.7485 28.9545 68.0077 29.9816 68.0077 31.3231V54.9633C68.0077 57.4782 66.9363 59.3601 64.7931 60.6102V61.3144L73.7336 59.738V59.0338C72.495 58.8498 71.6743 58.4161 71.2724 57.7325C70.8706 57.0488 70.6697 55.9691 70.6697 54.4939V35.4812Z" fill="#4d4b48"/>
<path d="M50.177 63.1875C52.3539 61.8645 53.4418 59.9791 53.4418 57.5317V33.8915C53.4418 31.4434 52.3539 29.9417 50.177 29.387V28.6828L62.784 26.4599V27.164C60.6077 28.4863 59.5193 30.3718 59.5193 32.8198V56.46C59.5193 58.9075 60.6077 60.4091 62.784 60.9645V61.6687L50.177 63.8916V63.1875Z" fill="#4d4b48"/>
<path fill-rule="evenodd" clip-rule="evenodd" d="M27.4743 62.1104C27.4743 64.5579 26.3864 66.4433 24.2095 67.7662V68.4704L36.6157 66.2829V65.5787C34.5398 65.0056 33.5016 63.4951 33.5016 61.0476V52.3963C33.7698 52.4496 34.0375 52.4527 34.3052 52.4055C34.5735 52.3582 34.8246 52.2213 35.0586 51.996C35.2932 51.7701 35.4102 51.5065 35.4102 51.2047C35.4102 51.0367 35.36 50.9118 35.2595 50.8289C35.126 50.9862 34.9416 51.0862 34.707 51.1275C34.5398 51.157 34.3977 51.1066 34.2801 50.9765C34.1631 50.8462 34.1043 50.6805 34.1043 50.4793C34.1043 50.1101 34.2219 49.7961 34.4559 49.5371C34.6905 49.2774 34.9918 49.1157 35.36 49.0508C36.3314 48.8795 37.1099 49.136 37.6955 49.8209C38.2817 50.5052 38.7252 51.433 39.0266 52.6041C39.3279 53.7747 39.663 55.4344 40.0311 57.5826C40.7012 61.354 41.4626 64.4474 42.3165 66.8621C43.1703 69.2767 44.6943 71.2291 46.8871 72.7206C49.0806 74.2115 52.153 74.6088 56.1038 73.9122C57.5775 73.6523 58.8247 73.1724 59.8458 72.4728C60.1517 72.2631 60.4343 72.0463 60.6936 71.8223C60.5649 72.4845 60.5005 73.1571 60.5005 73.8401C60.5005 75.3216 60.8159 76.6858 61.4467 77.9326C62.0776 79.1794 62.9141 80.1637 63.9564 80.8852C64.9986 81.6068 66.0957 81.9484 67.2477 81.9099C65.2455 82.3727 63.2158 83.4233 61.1587 85.0618C59.1016 86.7002 57.3943 88.7434 56.0366 91.1914C54.6789 93.6393 54.0001 96.2351 54.0001 98.9786C54.0001 102.49 54.816 105.371 56.448 107.621C58.0799 109.871 60.2468 111.417 62.9484 112.257C65.65 113.098 68.578 113.24 71.7322 112.684C74.6944 112.161 77.3274 111.073 79.6314 109.418C81.9353 107.764 83.7249 105.781 85.0003 103.471C86.2757 101.162 86.9134 98.7856 86.9134 96.3439C86.9134 93.326 86.3512 90.8874 85.2266 89.028C84.1021 87.1686 82.669 85.8986 80.9273 85.2181C79.1857 84.5375 77.4234 84.3544 75.6406 84.6688C74.2144 84.9202 72.9047 85.3363 71.7116 85.9171C70.5185 86.4979 69.5722 87.186 68.8728 87.9815C68.1734 88.777 67.8237 89.6 67.8237 90.4505C67.8237 90.8894 67.8991 91.2808 68.05 91.6246C68.2008 91.9684 68.3859 92.1895 68.6054 92.288C68.0842 92.5171 67.5425 92.9829 66.9803 93.6857C66.418 94.3884 65.9517 95.2457 65.5815 96.2575C65.2112 97.2693 65.026 98.3239 65.026 99.4213C65.026 101.067 65.3483 102.444 65.9929 103.551C66.6374 104.659 67.5357 105.44 68.6877 105.895C69.8396 106.35 71.1424 106.45 72.5961 106.194C73.6932 106 74.7012 105.589 75.62 104.961C76.5389 104.332 77.2657 103.594 77.8006 102.745C78.3354 101.896 78.6028 101.047 78.6028 100.196C78.6028 99.5103 78.3971 98.8744 77.9857 98.2885C77.5743 97.7026 77.0257 97.4152 76.34 97.4264C76.2029 98.0541 75.7983 98.6742 75.1264 99.2865C74.4544 99.8988 73.7618 100.268 73.0487 100.394C71.8144 100.611 70.8613 100.347 70.1893 99.6014C69.5174 98.8557 69.1813 97.9067 69.1813 96.7544C69.1813 94.9711 69.7779 93.3913 70.971 92.0149C72.1641 90.6385 73.7481 89.7762 75.7229 89.428C77.2314 89.162 78.6439 89.2284 79.9605 89.6273C81.277 90.0262 82.3399 90.8196 83.149 92.0075C83.9581 93.1955 84.3627 94.7909 84.3627 96.7937C84.3627 99.0982 83.8415 101.193 82.7993 103.078C81.757 104.962 80.2828 106.532 78.3765 107.788C76.4703 109.043 74.2555 109.893 71.7322 110.338C69.6751 110.701 67.7277 110.488 65.89 109.701C64.0524 108.914 62.5575 107.504 61.4056 105.471C60.2536 103.438 59.6776 100.817 59.6776 97.6071C59.6776 94.7538 60.2742 92.1795 61.4673 89.884C62.6604 87.5885 64.1484 85.7486 65.9312 84.3643C67.714 82.9799 69.4557 82.1378 71.1562 81.838C71.7596 81.7316 72.4521 81.4792 73.2338 81.0807C74.0155 80.6822 74.4064 80.1538 74.4064 79.4953C74.4064 79.2484 74.3515 79.0249 74.2418 78.8247C73.9949 79.0054 73.659 79.1744 73.2338 79.3317C72.8087 79.4889 72.3767 79.6063 71.9379 79.6837C71.0327 79.8433 70.0865 79.674 69.0991 79.1759C68.1117 78.6779 67.282 77.8708 66.61 76.7547C65.938 75.6386 65.602 74.2986 65.602 72.7348C65.602 70.4028 66.1163 68.3573 67.1449 66.5984C68.1734 64.8395 69.6476 63.7908 71.5676 63.4523C72.9938 63.2008 74.1801 63.4375 75.1264 64.1623C76.0726 64.8871 76.5457 66.0039 76.5457 67.5129C76.5457 68.3908 76.3332 69.1828 75.908 69.8888C75.4829 70.5947 74.8315 71.0251 73.9538 71.1799C73.2407 71.3056 72.6921 71.128 72.3081 70.647C71.9241 70.166 71.7322 69.5963 71.7322 68.9378C71.7322 68.7458 71.7733 68.5876 71.8556 68.4633C71.691 68.4375 71.4579 68.4512 71.1562 68.5044C70.3882 68.6398 69.7642 69.0859 69.2842 69.8427C68.8042 70.5995 68.5642 71.3894 68.5642 72.2125C68.5642 73.5294 69.0511 74.5616 70.0248 75.309C70.9984 76.0564 72.267 76.2922 73.8304 76.0165C75.1195 75.7892 76.2303 75.2916 77.1628 74.5236C77.492 76.1117 78.1502 77.2576 79.1376 77.9615C80.125 78.6653 81.3319 78.8914 82.7581 78.64C84.0198 78.4175 84.9181 77.9642 85.4529 77.28C85.9877 76.5958 86.2552 75.8971 86.2552 75.1838C86.2552 74.6625 86.0837 74.2332 85.7409 73.8958C85.3981 73.5585 84.9661 73.4357 84.4449 73.5276C83.9238 73.6195 83.5055 73.8647 83.1901 74.2633C82.8747 74.6619 82.717 75.0669 82.717 75.4784C82.717 76.1095 82.9775 76.5711 83.4987 76.8633C83.6084 76.8988 83.6152 76.9593 83.5192 77.0448C83.4233 77.1303 83.2792 77.19 83.0872 77.2239C82.3741 77.3496 81.7776 77.0913 81.2976 76.4489C80.8176 75.8065 80.461 74.9914 80.2279 74.0037C79.9948 73.016 79.8782 72.0694 79.8782 71.1641C79.8782 70.0941 80.0428 68.9539 80.3719 67.7436C80.701 66.5333 81.1879 65.4872 81.8324 64.6054C82.477 63.7235 83.2381 63.2052 84.1158 63.0504C84.1432 62.9633 84.1569 62.8512 84.1569 62.714C84.1569 62.4122 84.0335 62.2076 83.7867 62.1002C83.5398 61.9929 83.2381 61.9706 82.8815 62.0335C81.4553 62.285 80.2211 63.0925 79.1788 64.456C78.5205 63.2826 77.5263 62.4839 76.196 62.06C74.8658 61.6362 73.323 61.579 71.5676 61.8885C69.4008 62.2705 67.4808 63.0549 65.8077 64.2416C64.1346 65.4282 62.8318 66.8651 61.8993 68.5522C61.8036 68.7253 61.7129 68.8992 61.627 69.0738C61.2534 69.4683 60.827 69.8256 60.348 70.1459C59.3937 70.7835 58.4314 71.1881 57.46 71.3593C55.3504 71.7313 53.6427 71.3866 52.3368 70.3262C51.0309 69.2653 50.0349 67.8565 49.3483 66.1C48.6622 64.3428 47.9168 61.9261 47.1132 58.8488C46.2091 55.4536 45.3301 52.7753 44.4762 50.8133C43.6224 48.8513 42.4255 47.4528 40.885 46.6179C42.861 45.6659 44.4762 44.3917 45.7319 42.7957C46.9876 41.199 47.6154 39.4622 47.6154 37.5846C47.6154 34.9354 46.7616 33.0151 45.0538 31.8245C43.3461 30.6332 41.1196 30.2799 38.3736 30.7641L24.2095 33.2616V33.9658C26.3864 34.5541 27.4743 36.0559 27.4743 38.4702V62.1104ZM39.5791 43.6039C38.5745 44.9711 37.2355 45.8027 35.5609 46.098L33.5016 46.4611V33.6854L35.5609 33.3223C37.0677 33.0566 38.3656 33.4141 39.4535 34.3963C40.542 35.3778 41.0859 36.8246 41.0859 38.7359C41.0859 40.6136 40.5836 42.2362 39.5791 43.6039Z" fill="#4d4b48"/>
<path fill-rule="evenodd" clip-rule="evenodd" d="M3.26477 66.3792C3.26477 68.8267 2.17689 70.7121 0 72.035V72.7392L13.1595 70.4188V69.7146C10.6151 69.2579 9.34226 67.7888 9.34226 65.3076V54.1414L13.1595 53.4683C15.0351 53.1376 16.7177 52.4551 18.2074 51.4214C19.6976 50.387 20.8614 49.0838 21.6982 47.5113C22.5355 45.9382 22.9538 44.2297 22.9538 42.3858C22.9538 39.7028 22.1673 37.6873 20.5932 36.3387C19.0196 34.9895 16.9437 34.5428 14.365 34.9975L0 37.5304V38.2346C2.17689 38.7892 3.26477 40.291 3.26477 42.739V66.3792ZM15.0431 49.1878C14.1224 50.5738 12.9586 51.3912 11.5523 51.6392L9.34226 52.0288V37.9453L11.5523 37.5556C12.9586 37.3077 14.1224 37.7895 15.0431 39.0024C15.9643 40.2146 16.4243 41.9276 16.4243 44.1407C16.4243 46.1189 15.9643 47.801 15.0431 49.1878Z" fill="#4d4b48"/>
<path fill-rule="evenodd" clip-rule="evenodd" d="M200.753 82.4645C200.341 82.88 200.135 83.4855 200.135 84.2812C200.135 84.9122 200.327 85.5025 200.711 86.0521C201.095 86.6017 201.575 87.0383 202.151 87.362C202.727 87.6857 203.262 87.8589 203.756 87.8816C203.729 87.9962 203.715 88.1495 203.715 88.3415C203.715 89.0823 204.037 89.6496 204.682 90.0435C205.326 90.4374 206.156 90.5449 207.171 90.366C209.173 90.0129 211.086 89.4492 212.91 88.675C214.734 87.9007 216.338 87.0827 217.724 86.2212C219.109 85.3597 220.885 84.2029 223.051 82.7508C224.971 85.0187 227.975 85.7923 232.061 85.0717C234.146 84.7041 235.84 84.0077 237.142 82.9823C238.445 81.957 239.097 80.731 239.097 79.3043C239.097 78.0972 238.486 77.2514 237.266 76.767C236.045 76.2826 234.352 76.2315 232.185 76.6135C230.731 76.8699 229.154 77.34 227.454 78.0239C227.124 77.0943 226.836 76.1025 226.59 75.0486C226.343 73.9947 226.055 72.6738 225.726 71.0857C225.067 68.0192 224.45 65.6451 223.874 63.9634C223.298 62.2816 222.489 61.0525 221.447 60.2761C223.147 59.4824 224.539 58.4276 225.623 57.1117C226.706 55.7958 227.248 54.3423 227.248 52.751C227.248 50.5836 226.548 49.0128 225.15 48.0386C223.751 47.0643 221.927 46.7755 219.678 47.1721L208.076 49.2178V49.794C209.859 50.2752 210.75 51.5036 210.75 53.4789V72.8209C210.75 74.8237 209.859 76.3663 208.076 77.4489V78.025L218.238 76.2332V75.6571C216.537 75.1887 215.687 73.9531 215.687 71.9504V64.7074C215.961 64.8511 216.29 64.8891 216.674 64.8214C216.894 64.7827 217.1 64.671 217.292 64.4862C217.484 64.3015 217.58 64.0856 217.58 63.8387C217.58 63.7015 217.538 63.599 217.456 63.5312C217.346 63.6603 217.196 63.7418 217.004 63.7757C216.866 63.7998 216.75 63.7587 216.654 63.6521C216.558 63.5456 216.51 63.41 216.51 63.2454C216.51 62.9436 216.606 62.6866 216.798 62.4745C216.99 62.2623 217.237 62.1296 217.538 62.0764C218.306 61.941 218.876 62.1767 219.246 62.7836C219.616 63.3904 219.856 64.2055 219.966 65.2287C220.075 66.2519 220.158 67.7326 220.213 69.6709C220.267 72.1304 220.391 74.2143 220.583 75.9226C220.775 77.6309 221.173 79.1863 221.776 80.5888L220.83 81.0438C217.95 82.4295 215.522 83.516 213.548 84.3031C211.573 85.0903 209.571 85.6628 207.541 86.0207C205.347 86.4076 203.756 86.3589 202.769 85.8746C202.659 85.7842 202.556 85.6651 202.46 85.5174C202.364 85.3698 202.316 85.2273 202.316 85.0901C202.316 84.953 202.385 84.8311 202.522 84.7247C202.823 84.5617 203.077 84.3318 203.283 84.0349C203.489 83.738 203.591 83.4112 203.591 83.0545C203.591 82.6156 203.44 82.2649 203.139 82.0026C202.837 81.7403 202.467 81.6478 202.028 81.7252L201.946 81.7397C201.562 81.8074 201.164 82.049 200.753 82.4645ZM220.665 57.6772C219.842 58.7963 218.745 59.4767 217.374 59.7185L215.687 60.0159V49.563L217.374 49.2656C218.608 49.048 219.671 49.3407 220.562 50.1438C221.454 50.9468 221.899 52.1303 221.899 53.6941C221.899 55.2305 221.488 56.5582 220.665 57.6772ZM230.457 82.4533C229.524 81.8358 228.743 80.8694 228.112 79.554C229.922 78.6038 231.568 77.9981 233.049 77.7369C234.585 77.4661 235.764 77.5051 236.587 77.8538C237.41 78.2025 237.821 78.761 237.821 79.5292C237.821 80.3248 237.458 81.0542 236.731 81.7174C236.004 82.3805 235.051 82.8161 233.872 83.024C232.528 83.261 231.389 83.0708 230.457 82.4533Z" fill="#4d4b48"/>
<path d="M188.204 80.9528C189.987 79.8977 190.879 78.355 190.879 76.3248V56.9828C190.879 54.8977 189.987 53.6694 188.204 53.2979V52.7217L203.838 49.9651V55.3973L203.344 55.4843C202.769 54.4062 202.179 53.6322 201.575 53.1625C200.972 52.6927 200.286 52.5256 199.518 52.661L195.857 53.3066V62.0722L196.762 61.9126C198.188 61.6612 199.326 60.6099 200.177 58.759L200.835 58.6429V65.6801L200.177 65.7962C199.381 64.2355 198.243 63.5857 196.762 63.8468L195.857 64.0064V78.2043L196.844 78.0302C197.777 77.8657 198.798 77.4798 199.909 76.8724C201.02 76.265 201.987 75.4086 202.81 74.3033C203.632 73.198 204.044 71.8771 204.044 70.3407C204.044 70.2584 204.051 70.0858 204.064 69.8227C204.078 69.5597 204.01 69.3591 203.859 69.2211C203.708 69.0831 203.454 69.0455 203.098 69.1084C202.714 69.1761 202.378 69.0776 202.09 68.8129C201.802 68.5481 201.658 68.21 201.658 67.7985C201.658 67.3595 201.809 66.9557 202.11 66.587C202.412 66.2183 202.782 65.9952 203.221 65.9178L203.262 65.9106C203.811 65.8413 204.243 66.0052 204.558 66.4023C204.874 66.7993 205.031 67.3957 205.031 68.1913L204.99 70.9558C204.963 71.5368 204.949 72.3623 204.949 73.4323C204.949 74.7217 205.024 75.7235 205.175 76.4377C205.326 77.1518 205.635 77.605 206.101 77.7971V78.3733L188.204 81.5289V80.9528Z" fill="#4d4b48"/>
<path d="M171.131 79.8069C171.131 81.8371 170.239 83.3798 168.456 84.4349V85.011L186.353 81.8554V81.2792C185.887 81.0871 185.578 80.6339 185.427 79.9198C185.276 79.2056 185.201 78.2038 185.201 76.9144C185.201 75.8444 185.215 75.0189 185.242 74.4379L185.283 71.6734C185.283 70.8778 185.126 70.2814 184.81 69.8844C184.495 69.4873 184.063 69.3234 183.514 69.3927L183.473 69.3999C183.034 69.4773 182.664 69.7004 182.362 70.0691C182.06 70.4378 181.91 70.8416 181.91 71.2806C181.91 71.6921 182.054 72.0302 182.342 72.295C182.63 72.5597 182.966 72.6582 183.35 72.5905C183.706 72.5276 183.96 72.5652 184.111 72.7032C184.262 72.8412 184.33 73.0418 184.316 73.3048C184.303 73.5679 184.296 73.7405 184.296 73.8228C184.296 75.3592 183.884 76.6801 183.062 77.7854C182.239 78.8907 181.272 79.7471 180.161 80.3545C179.05 80.9619 178.029 81.3478 177.096 81.5123L176.109 81.6864V67.4885L177.014 67.3289C178.495 67.0678 179.633 67.7176 180.429 69.2783L181.087 69.1622V62.1251L180.429 62.2411C179.578 64.092 178.44 65.1433 177.014 65.3947L176.109 65.5543V56.7887L179.77 56.1431C180.538 56.0077 181.224 56.1748 181.827 56.6446C182.431 57.1143 183.02 57.8883 183.596 58.9664L184.09 58.8794V53.4472L168.456 56.2038V56.78C170.239 57.1515 171.131 58.3798 171.131 60.4649V79.8069Z" fill="#4d4b48"/>
<path d="M162.244 86.2711L150.107 67.958V83.5139C150.107 84.721 150.272 85.6042 150.601 86.1635C150.93 86.7227 151.602 87.0775 152.617 87.2278V87.8039L145.294 89.0952V88.5191C147.049 87.4963 147.927 85.956 147.927 83.8983V64.5564C147.927 63.4589 147.714 62.6185 147.289 62.035C146.864 61.4515 146.24 61.054 145.417 60.8424V60.2663L151.753 59.1491L161.709 74.3898V62.1261C161.709 61.0562 161.49 60.2238 161.051 59.629C160.612 59.0342 159.885 58.6479 158.87 58.4702V57.8941L166.399 56.5665V57.1427C164.699 58.1833 163.848 59.7187 163.848 61.7489V85.9881L162.244 86.2711Z" fill="#4d4b48"/>
<path d="M135.584 86.0747C135.584 88.0775 134.693 89.6201 132.91 90.7027V91.2788L143.236 89.458V88.8818C141.454 88.428 140.562 87.1997 140.562 85.1969V65.8549C140.562 63.8521 141.454 62.3095 143.236 61.2269V60.6508L132.91 62.4716V63.0478C134.693 63.5016 135.584 64.7299 135.584 66.7327V86.0747Z" fill="#4d4b48"/>
<path d="M93.4961 77.94L105.633 96.2531L107.237 95.9702V71.7309C107.237 69.7007 108.088 68.1653 109.788 67.1247V66.5486L102.259 67.8761V68.4523C103.274 68.63 104.001 69.0162 104.44 69.611C104.879 70.2058 105.098 71.0382 105.098 72.1082V84.3718L95.1418 69.1311L88.806 70.2483V70.8244C89.6288 71.036 90.2528 71.4335 90.6779 72.017C91.1031 72.6005 91.3156 73.441 91.3156 74.5384V93.8804C91.3156 95.938 90.4379 97.4783 88.6826 98.5011V99.0773L96.0058 97.786V97.2098C94.9909 97.0596 94.319 96.7048 93.9898 96.1455C93.6607 95.5863 93.4961 94.703 93.4961 93.4959V77.94Z" fill="#4d4b48"/>
<path d="M111.64 80.9961C111.64 77.8685 112.092 75.0931 112.997 72.6701C113.902 70.2471 115.171 68.2881 116.803 66.7932C118.435 65.2983 120.334 64.3598 122.501 63.9777C123.845 63.7408 125.127 63.7341 126.348 63.9579C127.568 64.1817 128.48 64.501 129.084 64.9158L128.508 70.2027L127.973 70.3382C127.315 68.5886 126.56 67.295 125.71 66.4572C124.86 65.6195 123.79 65.3143 122.501 65.5416C121.376 65.7399 120.389 66.4901 119.539 67.7923C118.689 69.0945 118.023 70.7962 117.543 72.8973C117.063 74.9985 116.823 77.3111 116.823 79.8351C116.823 83.8956 117.358 86.97 118.428 89.0586C119.498 91.1471 120.938 92.0318 122.748 91.7126C123.296 91.6159 123.749 91.3783 124.106 90.9999C124.462 90.6216 124.64 90.1992 124.64 89.7328V82.2017C124.64 81.1592 124.462 80.3264 124.106 79.7034C123.749 79.0804 123.118 78.6703 122.213 78.4733V77.8971L131.017 76.3447V76.9208C130.359 77.5582 129.907 78.1661 129.66 78.7446C129.413 79.3231 129.289 80.2023 129.289 81.382V92.946C129.289 95.9639 129.701 98.4909 130.524 100.527C131.347 102.563 132.457 103.581 133.856 103.581L134.021 103.552C134.158 103.528 134.233 103.481 134.247 103.41C134.261 103.339 134.24 103.267 134.185 103.194C134.13 103.094 134.103 102.975 134.103 102.838C134.103 102.399 134.254 101.995 134.556 101.627C134.857 101.258 135.228 101.035 135.666 100.958C136.105 100.88 136.476 100.973 136.777 101.235C137.079 101.497 137.23 101.862 137.23 102.328C137.23 102.877 137.024 103.427 136.613 103.98C136.201 104.533 135.625 104.874 134.885 105.005C133.65 105.223 132.54 105 131.552 104.337C130.565 103.675 129.824 102.852 129.331 101.869C128.563 102.004 127.952 101.748 127.5 101.101C127.047 100.454 126.752 99.4703 126.615 98.1502C126.176 98.447 125.655 98.6487 125.052 98.7551C124.229 98.9002 123.605 98.8387 123.18 98.5707C122.755 98.3027 122.487 97.9315 122.378 97.457V96.9632C123.146 96.6631 123.715 96.2061 124.085 95.5921C124.455 94.9781 124.64 94.1087 124.64 92.9839C123.763 93.3032 122.844 93.5476 121.884 93.7168C119.882 94.0699 118.106 93.752 116.556 92.7632C115.006 91.7744 113.8 90.2519 112.936 88.1957C112.072 86.1395 111.64 83.7396 111.64 80.9961Z" fill="#4d4b48"/>
<path d="M15.0001 9.89761C15.0001 9.55467 15.0378 9.29424 15.1132 9.11633C15.1886 8.93842 15.3428 8.78777 15.5759 8.66436C15.6308 8.13342 15.8398 7.69531 16.2032 7.35003C16.5665 7.00475 16.9881 6.7898 17.468 6.70518C17.756 6.65441 17.989 6.69562 18.1673 6.8288C18.3455 6.96199 18.4621 7.13349 18.5169 7.3433C18.5306 7.38203 18.5374 7.44256 18.5374 7.52487C18.5374 7.74435 18.462 7.94283 18.3112 8.12032C18.1604 8.29781 17.9753 8.4059 17.7559 8.44458C17.5366 8.48326 17.3515 8.44045 17.2007 8.31615C17.0498 8.19184 16.9744 8.01995 16.9744 7.80047C16.9744 7.69073 17.0018 7.56243 17.0567 7.41558C17.0841 7.35588 17.0875 7.31755 17.067 7.3006C17.0464 7.28365 17.0087 7.28687 16.9539 7.31026C16.7071 7.46352 16.498 7.689 16.3266 7.98672C16.1552 8.28444 16.0695 8.5979 16.0695 8.92713C16.0695 10.3675 17.0909 10.9076 19.1339 10.5473C19.8605 10.4192 20.6627 10.2058 21.5402 9.90699C22.4176 9.60823 23.5557 9.19152 24.9542 8.65685C26.764 7.98107 28.2619 7.44602 29.4479 7.05171C30.6339 6.6574 31.8096 6.3575 32.975 6.152C33.9896 5.9731 34.8671 5.95212 35.6075 6.08907C36.3479 6.22601 36.91 6.46297 37.294 6.79995C37.6779 7.13693 37.8698 7.51119 37.8698 7.92272C37.8698 8.30682 37.7601 8.54564 37.5408 8.63919C37.5408 8.36484 37.3796 8.12918 37.0574 7.93222C36.7352 7.73525 36.2588 7.6135 35.6281 7.56695C34.9974 7.52041 34.2433 7.57449 33.3658 7.72922C32.5843 7.86702 31.1515 8.29114 29.0674 9.00156C28.7383 9.12817 28.5121 9.28123 28.3887 9.46074C28.2653 9.64025 28.2036 9.8809 28.2036 10.1827V23.5575C28.2036 24.5589 28.6492 25.173 29.5404 25.4V25.6881L24.3783 26.5983V26.3102C25.2695 25.769 25.7151 24.9977 25.7151 23.9963V11.2388C25.7151 10.8821 25.65 10.6467 25.5197 10.5325C25.3895 10.4183 25.201 10.3829 24.9542 10.4264C24.8034 10.453 24.6936 10.4792 24.6251 10.505C22.5547 11.1445 20.8546 11.5814 19.5246 11.8159C17.9068 12.1012 16.7482 12.0345 16.0489 11.616C15.3497 11.1974 15.0001 10.6246 15.0001 9.89761Z" fill="#4d4b48"/>
<path d="M36.2451 24.2177C36.6838 23.9621 36.9855 23.6517 37.15 23.2866C37.3145 22.9215 37.3968 22.4714 37.3968 21.9364V16.566L33.7154 17.2151V22.5856C33.7154 23.1343 33.8045 23.5575 33.9828 23.8553C34.161 24.1531 34.4558 24.3549 34.8672 24.4607V24.7488L30.1163 25.5865V25.2984C30.5551 25.0427 30.8533 24.7329 31.011 24.369C31.1686 24.0052 31.2475 23.5557 31.2475 23.0207V13.3497C31.2475 12.7873 31.1584 12.3572 30.9801 12.0594C30.8019 11.7616 30.5139 11.5655 30.1163 11.471V11.1829L34.8672 10.3452V10.6333C34.4421 10.8728 34.1439 11.1723 33.9725 11.5318C33.8011 11.8912 33.7154 12.3521 33.7154 12.9146V16.3714L37.3968 15.7223V12.2654C37.3968 11.703 37.3077 11.2729 37.1294 10.9751C36.9512 10.6773 36.6564 10.4824 36.2451 10.3903V10.1022L40.9959 9.26453V9.5526C40.5572 9.80829 40.259 10.1181 40.1013 10.482C39.9436 10.8459 39.8648 11.2953 39.8648 11.8303V21.5013C39.8648 22.05 39.9505 22.4773 40.1219 22.7831C40.2932 23.089 40.5846 23.288 40.9959 23.3801V23.6681L36.2451 24.5058V24.2177Z" fill="#4d4b48"/>
<path d="M41.8186 23.5231V23.235C42.7098 22.7075 43.1554 21.9362 43.1554 20.921V11.2501C43.1554 10.2075 42.7098 9.59334 41.8186 9.40754V9.11947L49.6338 7.74144V10.4575L49.387 10.5011C49.099 9.96197 48.8043 9.57498 48.5026 9.3401C48.201 9.10521 47.8582 9.02162 47.4743 9.08931L45.6439 9.41206V14.2064L46.302 14.0904C47.015 13.9646 47.584 13.4391 48.009 12.5136L48.3381 12.4556V15.9742L48.009 16.0322C47.6114 15.2518 47.0424 14.9269 46.302 15.0575L45.6439 15.1735V21.8609L47.8239 21.4765C48.249 21.4015 48.6055 21.1912 48.8934 20.8455C49.1813 20.4998 49.4692 19.9655 49.7572 19.2426L50.0245 19.1954V22.0761L41.8186 23.5231Z" fill="#4d4b48"/>
</svg>
